<?xml version="1.0" encoding="UTF-8"?>
<svg xmlns="http://www.w3.org/2000/svg" xmlns:xlink="http://www.w3.org/1999/xlink" width="400px" height="120px" viewBox="0 0 400 120" version="1.1">
<defs>
<clipPath id="clip1">
  <path d="M 74.667969 96 L 91 96 L 91 118.722656 L 74.667969 118.722656 Z M 74.667969 96 "/>
</clipPath>
<clipPath id="clip2">
  <path d="M 95.042969 101.332031 L 109 101.332031 L 109 118.667969 L 95.042969 118.667969 Z M 95.042969 101.332031 "/>
</clipPath>
<clipPath id="clip3">
  <path d="M 133.332031 101.332031 L 147 101.332031 L 147 118.722656 L 133.332031 118.722656 Z M 133.332031 101.332031 "/>
</clipPath>
<clipPath id="clip4">
  <path d="M 159 101.332031 L 170 101.332031 L 170 118.722656 L 159 118.722656 Z M 159 101.332031 "/>
</clipPath>
<clipPath id="clip5">
  <path d="M 179.386719 94 L 193.441406 94 L 193.441406 118.722656 L 179.386719 118.722656 Z M 179.386719 94 "/>
</clipPath>
<clipPath id="clip6">
  <path d="M 197 101.332031 L 210 101.332031 L 210 118.722656 L 197 118.722656 Z M 197 101.332031 "/>
</clipPath>
<clipPath id="clip7">
  <path d="M 213 94 L 228 94 L 228 118.722656 L 213 118.722656 Z M 213 94 "/>
</clipPath>
<clipPath id="clip8">
  <path d="M 239 94 L 254 94 L 254 118.722656 L 239 118.722656 Z M 239 94 "/>
</clipPath>
<clipPath id="clip9">
  <path d="M 257 101.332031 L 270.667969 101.332031 L 270.667969 118.722656 L 257 118.722656 Z M 257 101.332031 "/>
</clipPath>
<clipPath id="clip10">
  <path d="M 303 101.332031 L 317 101.332031 L 317 118.722656 L 303 118.722656 Z M 303 101.332031 "/>
</clipPath>
<clipPath id="clip11">
  <path d="M 320 102 L 333 102 L 333 118.722656 L 320 118.722656 Z M 320 102 "/>
</clipPath>
<clipPath id="clip12">
  <path d="M 336 101.332031 L 347 101.332031 L 347 118.722656 L 336 118.722656 Z M 336 101.332031 "/>
</clipPath>
<clipPath id="clip13">
  <path d="M 348.0625 97.332031 L 358 97.332031 L 358 118.722656 L 348.0625 118.722656 Z M 348.0625 97.332031 "/>
</clipPath>
<clipPath id="clip14">
  <path d="M 359 101.332031 L 375 101.332031 L 375 118.722656 L 359 118.722656 Z M 359 101.332031 "/>
</clipPath>
</defs>
<g id="surface1">
<path style=" stroke:none;fill-rule:nonzero;fill:rgb(13.725491%,12.156863%,12.54902%);fill-opacity:1;" d="M 88.910156 61.746094 L 97.113281 61.746094 C 109.375 61.746094 121.253906 52.605469 121.253906 36.65625 C 121.253906 20.691406 109.375 11.550781 97.113281 11.550781 L 88.910156 11.550781 M 74.214844 0 L 94.277344 0 C 116.734375 0 136.574219 7.5625 136.574219 36.65625 C 136.574219 65.734375 116.734375 73.296875 94.277344 73.296875 L 74.214844 73.296875 L 74.214844 0 "/>
<path style=" stroke:none;fill-rule:nonzero;fill:rgb(13.725491%,12.156863%,12.54902%);fill-opacity:1;" d="M 180.558594 40.957031 C 180.136719 34.128906 176.984375 28.253906 169.113281 28.253906 C 161.246094 28.253906 157.253906 33.707031 156.613281 40.957031 M 190 70.253906 C 184.855469 73.09375 178.964844 74.5625 171.421875 74.5625 C 153.578125 74.5625 143.183594 64.269531 143.183594 46.527344 C 143.183594 30.871094 151.472656 17.964844 168.277344 17.964844 C 188.316406 17.964844 193.988281 31.714844 193.988281 50.628906 L 156.613281 50.628906 C 157.253906 59.34375 163.332031 64.269531 172.042969 64.269531 C 178.871094 64.269531 184.746094 61.746094 190 58.8125 L 190 70.253906 "/>
<path style=" stroke:none;fill-rule:nonzero;fill:rgb(13.725491%,12.156863%,12.54902%);fill-opacity:1;" d="M 252.027344 73.296875 L 238.703125 73.296875 L 238.703125 65.953125 L 238.484375 65.953125 C 234.183594 71.207031 228.105469 74.5625 220.75 74.5625 C 207.9375 74.5625 202.371094 65.53125 202.371094 53.359375 L 202.371094 19.222656 L 216.449219 19.222656 L 216.449219 48.105469 C 216.449219 54.714844 216.558594 63.644531 225.578125 63.644531 C 235.753906 63.644531 237.953125 52.605469 237.953125 45.683594 L 237.953125 19.222656 L 252.027344 19.222656 "/>
<path style=" stroke:none;fill-rule:nonzero;fill:rgb(13.725491%,12.156863%,12.54902%);fill-opacity:1;" d="M 296.011719 30.5625 C 291.707031 29.09375 288.542969 28.253906 283.417969 28.253906 C 279.628906 28.253906 275.109375 29.625 275.109375 34.238281 C 275.109375 42.847656 299.578125 37.390625 299.578125 56.910156 C 299.578125 69.527344 288.339844 74.5625 276.902344 74.5625 C 271.558594 74.5625 266.105469 73.609375 260.941406 72.253906 L 261.78125 60.699219 C 266.214844 62.894531 270.824219 64.269531 275.640625 64.269531 C 279.207031 64.269531 284.878906 62.894531 284.878906 57.640625 C 284.878906 47.042969 260.425781 54.292969 260.425781 34.769531 C 260.425781 23.109375 270.605469 17.964844 281.625 17.964844 C 288.25 17.964844 292.550781 19.003906 296.941406 19.957031 "/>
<path style=" stroke:none;fill-rule:nonzero;fill:rgb(13.725491%,12.156863%,12.54902%);fill-opacity:1;" d="M 313.140625 29.515625 L 302.746094 29.515625 L 302.746094 19.222656 L 313.140625 19.222656 L 313.140625 8.40625 L 327.199219 3.878906 L 327.199219 19.222656 L 339.699219 19.222656 L 339.699219 29.515625 L 327.199219 29.515625 L 327.199219 54.714844 C 327.199219 59.34375 328.457031 63.644531 333.808594 63.644531 C 336.332031 63.644531 338.746094 63.113281 340.214844 62.167969 L 340.628906 73.296875 C 337.6875 74.140625 334.449219 74.5625 330.253906 74.5625 C 319.21875 74.5625 313.140625 67.730469 313.140625 57.019531 "/>
<path style=" stroke:none;fill-rule:nonzero;fill:rgb(13.725491%,12.156863%,12.54902%);fill-opacity:1;" d="M 371.453125 63.644531 C 382.253906 63.644531 385.109375 53.980469 385.109375 44.953125 C 385.109375 36.65625 380.675781 28.875 371.453125 28.875 C 362.324219 28.875 357.910156 36.859375 357.910156 44.953125 C 357.910156 53.871094 360.746094 63.644531 371.453125 63.644531 M 371.453125 17.964844 C 387.503906 17.964844 399.785156 28.785156 399.785156 46.636719 C 399.785156 62.167969 389.410156 74.5625 371.453125 74.5625 C 353.609375 74.5625 343.214844 62.167969 343.214844 46.636719 C 343.214844 28.785156 355.496094 17.964844 371.453125 17.964844 "/>
<path style=" stroke:none;fill-rule:nonzero;fill:rgb(0%,31.764707%,63.921571%);fill-opacity:1;" d="M 56.042969 50.246094 C 56.042969 65.53125 43.796875 77.949219 28.675781 77.949219 C 13.59375 77.949219 1.355469 65.53125 1.355469 50.246094 L 1.332031 49.894531 L 1.332031 -0.0195312 L 56.042969 -0.0195312 L 56.042969 49.894531 "/>
<path style=" stroke:none;fill-rule:nonzero;fill:rgb(100%,100%,100%);fill-opacity:1;" d="M 13.046875 38.433594 L 23.09375 38.433594 L 23.09375 37.246094 L 13.046875 37.246094 L 13.046875 38.433594 "/>
<path style=" stroke:none;fill-rule:nonzero;fill:rgb(100%,100%,100%);fill-opacity:1;" d="M 25.605469 36.472656 L 23.863281 37.246094 L 23.863281 38.433594 L 33.511719 38.433594 L 33.511719 37.246094 L 31.769531 36.472656 "/>
<path style=" stroke:none;fill-rule:nonzero;fill:rgb(100%,100%,100%);fill-opacity:1;" d="M 7.0625 36.472656 L 5.910156 37.246094 L 5.910156 38.433594 L 12.277344 38.433594 L 12.277344 37.246094 L 11.109375 36.472656 "/>
<path style=" stroke:none;fill-rule:nonzero;fill:rgb(100%,100%,100%);fill-opacity:1;" d="M 5.527344 26.3125 L 5.527344 27.097656 L 12.683594 27.097656 L 12.683594 26.3125 L 9.09375 25.140625 "/>
<path style=" stroke:none;fill-rule:nonzero;fill:rgb(100%,100%,100%);fill-opacity:1;" d="M 28.675781 26.421875 C 28.386719 26.421875 28.128906 26.144531 28.128906 25.839844 C 28.128906 25.503906 28.386719 25.25 28.675781 25.25 C 29.003906 25.25 29.28125 25.503906 29.28125 25.839844 C 29.28125 26.144531 29.003906 26.421875 28.675781 26.421875 M 28.675781 24.753906 L 23.09375 26.3125 L 23.09375 27.097656 L 34.277344 27.097656 L 34.277344 26.3125 L 28.675781 24.753906 "/>
<path style=" stroke:none;fill-rule:nonzero;fill:rgb(100%,100%,100%);fill-opacity:1;" d="M 47.691406 24.574219 L 47.691406 25.34375 L 44.714844 26.3125 L 44.714844 27.097656 L 51.847656 27.097656 L 51.847656 26.3125 L 48.863281 25.34375 L 48.863281 24.574219 "/>
<path style=" stroke:none;fill-rule:nonzero;fill:rgb(100%,100%,100%);fill-opacity:1;" d="M 34.277344 38.433594 L 44.328125 38.433594 L 44.328125 37.246094 L 34.277344 37.246094 L 34.277344 38.433594 "/>
<path style=" stroke:none;fill-rule:nonzero;fill:rgb(100%,100%,100%);fill-opacity:1;" d="M 11.269531 32.753906 L 10.503906 32.753906 L 10.503906 31.785156 C 10.503906 31.546875 10.667969 31.386719 10.886719 31.386719 C 11.089844 31.386719 11.269531 31.546875 11.269531 31.785156 M 11.269531 35.300781 L 10.503906 35.300781 L 10.503906 34.515625 C 10.503906 34.296875 10.667969 34.128906 10.886719 34.128906 C 11.089844 34.128906 11.269531 34.296875 11.269531 34.515625 Z M 10.503906 29.019531 C 10.503906 28.800781 10.667969 28.636719 10.886719 28.636719 C 11.089844 28.636719 11.269531 28.800781 11.269531 29.019531 L 11.269531 29.828125 L 10.503906 29.828125 Z M 9.480469 29.828125 L 8.707031 29.828125 L 8.707031 29.019531 C 8.707031 28.800781 8.890625 28.636719 9.09375 28.636719 C 9.3125 28.636719 9.480469 28.800781 9.480469 29.019531 Z M 9.480469 32.753906 L 8.707031 32.753906 L 8.707031 31.785156 C 8.707031 31.546875 8.890625 31.386719 9.09375 31.386719 C 9.3125 31.386719 9.480469 31.546875 9.480469 31.785156 Z M 7.703125 29.828125 L 6.917969 29.828125 L 6.917969 29.019531 C 6.917969 28.800781 7.097656 28.636719 7.300781 28.636719 C 7.519531 28.636719 7.703125 28.800781 7.703125 29.019531 Z M 7.703125 32.753906 L 6.917969 32.753906 L 6.917969 31.769531 C 6.917969 31.546875 7.097656 31.386719 7.300781 31.386719 C 7.519531 31.386719 7.703125 31.546875 7.703125 31.769531 Z M 7.703125 35.300781 L 6.917969 35.300781 L 6.917969 34.515625 C 6.917969 34.296875 7.097656 34.128906 7.300781 34.128906 C 7.519531 34.128906 7.703125 34.296875 7.703125 34.515625 Z M 5.910156 27.871094 L 5.910156 36.472656 L 7.0625 35.703125 L 8.511719 35.703125 L 8.511719 34.71875 C 8.511719 34.386719 8.78125 34.113281 9.09375 34.113281 C 9.421875 34.113281 9.675781 34.386719 9.675781 34.71875 L 9.675781 35.703125 L 11.125 35.703125 L 12.296875 36.472656 L 12.296875 27.871094 L 5.910156 27.871094 "/>
<path style=" stroke:none;fill-rule:nonzero;fill:rgb(100%,100%,100%);fill-opacity:1;" d="M 21.6875 29.828125 L 20.917969 29.828125 L 20.917969 29.019531 C 20.917969 28.800781 21.097656 28.621094 21.300781 28.621094 C 21.542969 28.621094 21.6875 28.800781 21.6875 29.019531 M 21.6875 32.753906 L 20.917969 32.753906 L 20.917969 31.785156 C 20.917969 31.546875 21.097656 31.386719 21.300781 31.386719 C 21.542969 31.386719 21.6875 31.546875 21.6875 31.785156 Z M 21.6875 35.703125 L 20.917969 35.703125 L 20.917969 34.515625 C 20.917969 34.296875 21.097656 34.128906 21.316406 34.128906 C 21.542969 34.128906 21.6875 34.296875 21.6875 34.515625 Z M 19.546875 35.703125 L 18.753906 35.703125 L 18.753906 34.515625 C 18.753906 34.296875 18.941406 34.128906 19.160156 34.128906 C 19.34375 34.128906 19.546875 34.296875 19.546875 34.515625 Z M 18.753906 31.785156 C 18.753906 31.546875 18.941406 31.386719 19.140625 31.386719 C 19.34375 31.386719 19.546875 31.546875 19.546875 31.785156 L 19.546875 32.753906 L 18.753906 32.753906 Z M 17.386719 29.828125 L 16.597656 29.828125 L 16.613281 29.019531 C 16.613281 28.800781 16.78125 28.621094 17 28.621094 C 17.203125 28.621094 17.386719 28.800781 17.386719 29.019531 Z M 17.386719 32.753906 L 16.597656 32.753906 L 16.597656 31.785156 C 16.597656 31.546875 16.78125 31.386719 17 31.386719 C 17.203125 31.386719 17.386719 31.546875 17.386719 31.785156 Z M 17.386719 35.703125 L 16.613281 35.703125 L 16.613281 34.515625 C 16.613281 34.296875 16.78125 34.128906 17 34.128906 C 17.203125 34.128906 17.386719 34.296875 17.386719 34.515625 Z M 15.207031 35.703125 L 14.4375 35.703125 L 14.4375 34.515625 C 14.4375 34.296875 14.605469 34.113281 14.824219 34.113281 C 15.042969 34.113281 15.207031 34.296875 15.207031 34.515625 Z M 14.4375 31.785156 C 14.4375 31.546875 14.605469 31.386719 14.824219 31.386719 C 15.042969 31.386719 15.207031 31.546875 15.207031 31.785156 L 15.207031 32.753906 L 14.4375 32.753906 Z M 14.4375 29.019531 C 14.4375 28.800781 14.605469 28.621094 14.824219 28.621094 C 15.042969 28.621094 15.207031 28.800781 15.207031 29.019531 L 15.207031 29.828125 L 14.4375 29.828125 Z M 18.753906 29.019531 C 18.753906 28.800781 18.941406 28.621094 19.140625 28.621094 C 19.34375 28.621094 19.546875 28.800781 19.546875 29.019531 L 19.546875 29.828125 L 18.753906 29.828125 Z M 13.046875 36.472656 L 23.09375 36.472656 L 23.09375 27.871094 L 13.046875 27.871094 L 13.046875 36.472656 "/>
<path style=" stroke:none;fill-rule:nonzero;fill:rgb(100%,100%,100%);fill-opacity:1;" d="M 32.230469 29.828125 L 31.441406 29.828125 L 31.441406 29.019531 C 31.441406 28.800781 31.605469 28.636719 31.828125 28.636719 C 32.046875 28.636719 32.230469 28.800781 32.230469 29.019531 M 32.230469 32.753906 L 31.441406 32.753906 L 31.441406 31.785156 C 31.441406 31.546875 31.605469 31.386719 31.828125 31.386719 C 32.046875 31.386719 32.230469 31.546875 32.230469 31.785156 Z M 30.125 29.828125 L 29.355469 29.828125 L 29.355469 29.019531 C 29.355469 28.800781 29.519531 28.636719 29.738281 28.636719 C 29.957031 28.636719 30.125 28.800781 30.125 29.019531 Z M 30.125 32.753906 L 29.355469 32.753906 L 29.355469 31.785156 C 29.355469 31.546875 29.519531 31.386719 29.738281 31.386719 C 29.957031 31.386719 30.125 31.546875 30.125 31.785156 Z M 28.035156 29.828125 L 27.269531 29.828125 L 27.269531 29.019531 C 27.269531 28.800781 27.433594 28.636719 27.636719 28.636719 C 27.875 28.636719 28.035156 28.800781 28.035156 29.019531 Z M 28.035156 32.753906 L 27.269531 32.753906 L 27.269531 31.785156 C 27.269531 31.546875 27.433594 31.386719 27.636719 31.386719 C 27.875 31.386719 28.035156 31.546875 28.035156 31.785156 Z M 25.96875 29.828125 L 25.199219 29.828125 L 25.199219 29.019531 C 25.199219 28.800781 25.386719 28.636719 25.566406 28.636719 C 25.785156 28.636719 25.96875 28.800781 25.96875 29.019531 Z M 25.953125 32.753906 L 25.160156 32.753906 L 25.183594 31.785156 C 25.183594 31.546875 25.347656 31.386719 25.566406 31.386719 C 25.765625 31.386719 25.953125 31.546875 25.953125 31.785156 Z M 23.863281 27.871094 L 23.863281 36.472656 L 25.605469 35.703125 L 25.605469 34.71875 C 25.605469 34.40625 25.859375 34.113281 26.1875 34.113281 C 26.515625 34.113281 26.777344 34.40625 26.777344 34.71875 L 26.777344 35.703125 L 28.128906 35.703125 L 28.128906 34.71875 C 28.128906 34.40625 28.363281 34.113281 28.675781 34.113281 C 29.003906 34.113281 29.28125 34.40625 29.28125 34.71875 L 29.28125 35.703125 L 30.621094 35.703125 L 30.621094 34.71875 C 30.621094 34.40625 30.875 34.128906 31.203125 34.128906 C 31.53125 34.128906 31.769531 34.40625 31.769531 34.71875 L 31.769531 35.703125 L 33.511719 36.472656 L 33.511719 27.871094 L 23.863281 27.871094 "/>
<path style=" stroke:none;fill-rule:nonzero;fill:rgb(100%,100%,100%);fill-opacity:1;" d="M 34.277344 38.433594 L 44.328125 38.433594 L 44.328125 37.246094 L 34.277344 37.246094 L 34.277344 38.433594 "/>
<path style=" stroke:none;fill-rule:nonzero;fill:rgb(100%,100%,100%);fill-opacity:1;" d="M 42.917969 35.703125 L 42.152344 35.703125 L 42.152344 34.515625 C 42.152344 34.296875 42.332031 34.128906 42.566406 34.128906 C 42.769531 34.128906 42.917969 34.296875 42.917969 34.515625 M 40.777344 35.703125 L 39.988281 35.703125 L 39.988281 34.515625 C 39.988281 34.296875 40.191406 34.128906 40.375 34.128906 C 40.59375 34.128906 40.777344 34.296875 40.777344 34.515625 Z M 39.988281 31.785156 C 39.988281 31.546875 40.191406 31.386719 40.375 31.386719 C 40.59375 31.386719 40.777344 31.546875 40.777344 31.785156 L 40.777344 32.753906 L 39.988281 32.753906 Z M 38.613281 35.703125 L 37.847656 35.703125 L 37.847656 34.515625 C 37.847656 34.296875 38.011719 34.128906 38.234375 34.128906 C 38.433594 34.128906 38.613281 34.296875 38.613281 34.515625 Z M 37.847656 31.785156 C 37.847656 31.546875 38.011719 31.386719 38.234375 31.386719 C 38.433594 31.386719 38.613281 31.546875 38.613281 31.785156 L 38.613281 32.753906 L 37.847656 32.753906 Z M 36.4375 35.703125 L 35.671875 35.703125 L 35.671875 34.515625 C 35.671875 34.296875 35.855469 34.113281 36.074219 34.113281 C 36.277344 34.113281 36.4375 34.296875 36.4375 34.515625 Z M 35.671875 31.785156 C 35.671875 31.546875 35.832031 31.386719 36.074219 31.386719 C 36.277344 31.386719 36.4375 31.546875 36.4375 31.785156 L 36.4375 32.753906 L 35.652344 32.753906 Z M 35.671875 29.019531 C 35.671875 28.800781 35.832031 28.636719 36.074219 28.636719 C 36.277344 28.636719 36.4375 28.800781 36.4375 29.019531 L 36.4375 29.828125 L 35.652344 29.828125 Z M 37.847656 29.019531 C 37.847656 28.800781 38.011719 28.636719 38.234375 28.636719 C 38.433594 28.636719 38.613281 28.800781 38.613281 29.019531 L 38.613281 29.828125 L 37.847656 29.828125 Z M 39.988281 29.019531 C 39.988281 28.800781 40.191406 28.636719 40.375 28.636719 C 40.59375 28.636719 40.777344 28.800781 40.777344 29.019531 L 40.777344 29.828125 L 39.988281 29.828125 Z M 42.152344 31.785156 C 42.152344 31.546875 42.332031 31.386719 42.566406 31.386719 C 42.769531 31.386719 42.917969 31.546875 42.917969 31.785156 L 42.917969 32.753906 L 42.152344 32.753906 Z M 42.152344 29.019531 C 42.152344 28.800781 42.332031 28.636719 42.566406 28.636719 C 42.769531 28.636719 42.917969 28.800781 42.917969 29.019531 L 42.917969 29.828125 L 42.152344 29.828125 Z M 34.277344 36.472656 L 44.328125 36.472656 L 44.328125 27.871094 L 34.277344 27.871094 L 34.277344 36.472656 "/>
<path style=" stroke:none;fill-rule:nonzero;fill:rgb(100%,100%,100%);fill-opacity:1;" d="M 46.25 36.472656 L 45.078125 37.246094 L 45.078125 38.433594 L 51.464844 38.433594 L 51.464844 37.246094 L 50.3125 36.472656 "/>
<path style=" stroke:none;fill-rule:nonzero;fill:rgb(100%,100%,100%);fill-opacity:1;" d="M 50.457031 32.753906 L 49.671875 32.753906 L 49.671875 31.785156 C 49.671875 31.546875 49.839844 31.386719 50.074219 31.386719 C 50.277344 31.386719 50.457031 31.546875 50.457031 31.785156 M 50.4375 35.300781 L 49.671875 35.300781 L 49.671875 34.515625 C 49.671875 34.296875 49.839844 34.128906 50.074219 34.128906 C 50.277344 34.128906 50.4375 34.296875 50.4375 34.515625 Z M 49.671875 29.019531 C 49.671875 28.800781 49.839844 28.636719 50.074219 28.636719 C 50.277344 28.636719 50.4375 28.800781 50.4375 29.019531 L 50.4375 29.828125 L 49.671875 29.828125 Z M 48.667969 29.828125 L 47.894531 29.828125 L 47.894531 29.019531 C 47.894531 28.800781 48.0625 28.636719 48.28125 28.636719 C 48.5 28.636719 48.667969 28.800781 48.667969 29.019531 Z M 48.667969 32.753906 L 47.894531 32.753906 L 47.894531 31.785156 C 47.894531 31.546875 48.0625 31.386719 48.28125 31.386719 C 48.5 31.386719 48.667969 31.546875 48.667969 31.785156 Z M 46.871094 29.828125 L 46.105469 29.828125 L 46.105469 29.019531 C 46.105469 28.800781 46.285156 28.636719 46.484375 28.636719 C 46.707031 28.636719 46.890625 28.800781 46.890625 29.019531 Z M 46.871094 32.753906 L 46.105469 32.753906 L 46.105469 31.769531 C 46.105469 31.546875 46.285156 31.386719 46.484375 31.386719 C 46.707031 31.386719 46.890625 31.546875 46.890625 31.769531 Z M 46.871094 35.300781 L 46.105469 35.300781 L 46.105469 34.515625 C 46.105469 34.296875 46.285156 34.128906 46.484375 34.128906 C 46.707031 34.128906 46.890625 34.296875 46.890625 34.515625 Z M 45.078125 27.871094 L 45.078125 36.472656 L 46.25 35.703125 L 47.691406 35.703125 L 47.691406 34.71875 C 47.691406 34.386719 47.953125 34.113281 48.28125 34.113281 C 48.59375 34.113281 48.863281 34.386719 48.863281 34.71875 L 48.863281 35.703125 L 50.3125 35.703125 L 51.464844 36.472656 L 51.464844 27.871094 L 45.078125 27.871094 "/>
<path style=" stroke:none;fill-rule:nonzero;fill:rgb(100%,100%,100%);fill-opacity:1;" d="M 28.277344 16.644531 L 28.277344 5.53125 L 28.253906 5.53125 C 28.253906 4.46875 27.25 4.578125 27.25 4.578125 L 20.167969 4.578125 L 20.167969 15.671875 L 27.214844 15.671875 C 27.214844 15.671875 28.277344 15.671875 28.277344 16.644531 "/>
<path style=" stroke:none;fill-rule:nonzero;fill:rgb(100%,100%,100%);fill-opacity:1;" d="M 30.140625 15.671875 L 37.207031 15.671875 L 37.207031 4.578125 L 30.125 4.578125 C 30.125 4.578125 29.097656 4.46875 29.097656 5.546875 L 29.097656 16.660156 C 29.097656 15.671875 30.140625 15.671875 30.140625 15.671875 "/>
<path style=" stroke:none;fill-rule:nonzero;fill:rgb(100%,100%,100%);fill-opacity:1;" d="M 38.378906 5.933594 L 38.378906 16.917969 L 29.753906 16.9375 L 29.683594 17.15625 C 29.535156 17.542969 29.15625 17.832031 28.675781 17.832031 C 28.238281 17.832031 27.855469 17.542969 27.6875 17.15625 L 27.636719 16.9375 L 19.015625 16.917969 L 19.015625 5.933594 L 18.113281 5.933594 L 18.113281 17.832031 L 26.972656 17.832031 C 27.324219 18.402344 27.964844 18.785156 28.675781 18.785156 L 28.714844 18.785156 C 29.410156 18.785156 30.066406 18.402344 30.417969 17.832031 L 39.292969 17.832031 L 39.292969 5.933594 "/>
<path style=" stroke:none;fill-rule:nonzero;fill:rgb(100%,100%,100%);fill-opacity:1;" d="M 42.386719 45.042969 C 43.738281 44.347656 45.296875 43.949219 46.925781 43.949219 C 48.574219 43.949219 50.128906 44.347656 51.5 45.042969 L 51.484375 41.75 C 50.109375 41.050781 48.558594 40.667969 46.925781 40.667969 C 45.277344 40.667969 43.722656 41.050781 42.347656 41.75 C 40.980469 42.441406 39.4375 42.828125 37.8125 42.828125 C 36.144531 42.828125 34.625 42.441406 33.253906 41.75 C 31.878906 41.050781 30.324219 40.667969 28.675781 40.667969 C 27.046875 40.667969 25.496094 41.050781 24.121094 41.75 C 22.765625 42.441406 21.191406 42.828125 19.546875 42.828125 C 17.917969 42.828125 16.378906 42.441406 15.003906 41.75 C 13.636719 41.050781 12.078125 40.667969 10.449219 40.667969 C 8.800781 40.667969 7.265625 41.050781 5.890625 41.75 L 5.910156 45.042969 C 7.28125 44.347656 8.839844 43.949219 10.46875 43.949219 C 12.113281 43.949219 13.652344 44.347656 15.027344 45.042969 C 16.417969 45.738281 17.933594 46.125 19.582031 46.125 C 21.207031 46.125 22.765625 45.738281 24.121094 45.042969 C 25.511719 44.347656 27.046875 43.949219 28.675781 43.949219 C 30.324219 43.949219 31.878906 44.347656 33.269531 45.042969 C 34.644531 45.738281 36.183594 46.125 37.8125 46.125 C 39.457031 46.125 41.015625 45.738281 42.386719 45.042969 "/>
<path style=" stroke:none;fill-rule:nonzero;fill:rgb(100%,100%,100%);fill-opacity:1;" d="M 42.386719 51.105469 C 43.761719 50.410156 45.296875 50.027344 46.941406 50.027344 C 48.59375 50.027344 50.128906 50.410156 51.5 51.105469 L 51.484375 47.828125 C 50.109375 47.113281 48.574219 46.730469 46.925781 46.730469 C 45.277344 46.730469 43.738281 47.113281 42.371094 47.828125 C 41.015625 48.503906 39.4375 48.90625 37.8125 48.90625 C 36.160156 48.90625 34.625 48.503906 33.253906 47.828125 C 31.878906 47.113281 30.324219 46.730469 28.675781 46.730469 C 27.046875 46.730469 25.496094 47.113281 24.140625 47.828125 C 22.765625 48.503906 21.191406 48.90625 19.582031 48.90625 C 17.933594 48.90625 16.378906 48.503906 15.003906 47.828125 C 13.636719 47.113281 12.078125 46.730469 10.449219 46.730469 C 8.800781 46.730469 7.265625 47.113281 5.890625 47.828125 L 5.910156 51.105469 C 7.28125 50.410156 8.816406 50.027344 10.46875 50.027344 C 12.113281 50.027344 13.652344 50.410156 15.027344 51.105469 C 16.417969 51.816406 17.933594 52.203125 19.582031 52.203125 C 21.207031 52.203125 22.765625 51.816406 24.140625 51.105469 C 25.53125 50.410156 27.066406 50.027344 28.714844 50.027344 C 30.324219 50.027344 31.878906 50.410156 33.269531 51.105469 C 34.644531 51.816406 36.183594 52.203125 37.8125 52.203125 C 39.457031 52.203125 41.015625 51.816406 42.386719 51.105469 "/>
<path style=" stroke:none;fill-rule:nonzero;fill:rgb(100%,100%,100%);fill-opacity:1;" d="M 42.386719 57.203125 C 43.761719 56.503906 45.296875 56.105469 46.941406 56.105469 C 48.59375 56.105469 50.128906 56.503906 51.5 57.203125 L 51.484375 53.90625 C 50.109375 53.207031 48.574219 52.828125 46.925781 52.828125 C 45.277344 52.828125 43.738281 53.207031 42.371094 53.90625 C 41.015625 54.621094 39.4375 54.984375 37.8125 54.984375 C 36.160156 54.984375 34.625 54.621094 33.253906 53.90625 C 31.878906 53.207031 30.324219 52.828125 28.675781 52.828125 C 27.046875 52.828125 25.496094 53.207031 24.140625 53.90625 C 22.765625 54.621094 21.191406 54.984375 19.582031 54.984375 C 17.933594 54.984375 16.378906 54.621094 15.003906 53.90625 C 13.636719 53.207031 12.078125 52.828125 10.449219 52.828125 C 8.800781 52.828125 7.265625 53.207031 5.890625 53.90625 L 5.910156 57.203125 C 7.28125 56.503906 8.816406 56.105469 10.46875 56.105469 C 12.113281 56.105469 13.652344 56.503906 15.027344 57.203125 C 16.417969 57.894531 17.933594 58.265625 19.582031 58.265625 C 21.207031 58.265625 22.765625 57.894531 24.140625 57.203125 C 25.53125 56.503906 27.066406 56.105469 28.714844 56.105469 C 30.324219 56.105469 31.878906 56.503906 33.269531 57.203125 C 34.644531 57.894531 36.183594 58.265625 37.8125 58.265625 C 39.457031 58.265625 41.015625 57.894531 42.386719 57.203125 "/>
<g clip-path="url(#clip1)" clip-rule="nonzero">
<path style=" stroke:none;fill-rule:nonzero;fill:rgb(13.725491%,12.156863%,12.54902%);fill-opacity:1;" d="M 90.761719 110.578125 C 90.761719 117.128906 85.949219 118.722656 82.707031 118.722656 C 79.46875 118.722656 74.671875 117.128906 74.671875 110.578125 L 74.671875 96.128906 L 76.847656 96.128906 L 76.847656 110.578125 C 76.847656 114.21875 78.863281 116.824219 82.707031 116.824219 C 86.566406 116.824219 88.5625 114.21875 88.5625 110.578125 L 88.5625 96.128906 L 90.761719 96.128906 "/>
</g>
<g clip-path="url(#clip2)" clip-rule="nonzero">
<path style=" stroke:none;fill-rule:nonzero;fill:rgb(13.725491%,12.156863%,12.54902%);fill-opacity:1;" d="M 95.8125 105.941406 C 95.8125 104.699219 95.8125 103.4375 95.683594 102.121094 L 97.625 102.121094 L 97.625 105.03125 L 97.699219 105.03125 C 98.359375 103.5625 99.5625 101.75 102.933594 101.75 C 106.941406 101.75 108.457031 104.40625 108.457031 107.980469 L 108.457031 118.359375 L 106.464844 118.359375 L 106.464844 108.488281 C 106.464844 105.433594 105.386719 103.472656 102.621094 103.472656 C 98.957031 103.472656 97.828125 106.675781 97.828125 109.371094 L 97.828125 118.359375 L 95.8125 118.359375 "/>
</g>
<path style=" stroke:none;fill-rule:nonzero;fill:rgb(13.725491%,12.156863%,12.54902%);fill-opacity:1;" d="M 115.488281 97.796875 L 113.496094 97.796875 L 113.496094 95.125 L 115.488281 95.125 Z M 113.496094 102.121094 L 115.488281 102.121094 L 115.488281 118.339844 L 113.496094 118.339844 L 113.496094 102.121094 "/>
<path style=" stroke:none;fill-rule:nonzero;fill:rgb(13.725491%,12.156863%,12.54902%);fill-opacity:1;" d="M 126.175781 118.359375 L 123.832031 118.359375 L 118.324219 102.121094 L 120.519531 102.121094 L 125.003906 116.144531 L 125.0625 116.144531 L 129.765625 102.121094 L 131.871094 102.121094 "/>
<g clip-path="url(#clip3)" clip-rule="nonzero">
<path style=" stroke:none;fill-rule:nonzero;fill:rgb(13.725491%,12.156863%,12.54902%);fill-opacity:1;" d="M 145.5625 117.847656 C 144.152344 118.417969 142.339844 118.722656 140.839844 118.722656 C 135.457031 118.722656 133.464844 115.097656 133.464844 110.230469 C 133.464844 105.285156 136.1875 101.75 140.285156 101.75 C 144.878906 101.75 146.75 105.433594 146.75 109.792969 L 146.75 110.816406 L 135.65625 110.816406 C 135.65625 114.238281 137.503906 117.003906 141 117.003906 C 142.46875 117.003906 144.589844 116.417969 145.5625 115.796875 M 144.550781 109.09375 C 144.550781 106.253906 143.417969 103.472656 140.417969 103.472656 C 137.46875 103.472656 135.65625 106.421875 135.65625 109.09375 L 144.550781 109.09375 "/>
</g>
<path style=" stroke:none;fill-rule:nonzero;fill:rgb(13.725491%,12.156863%,12.54902%);fill-opacity:1;" d="M 150.558594 105.761719 C 150.558594 103.96875 150.558594 103.308594 150.449219 102.121094 L 152.441406 102.121094 L 152.441406 105.230469 L 152.515625 105.230469 C 153.230469 103.417969 154.621094 101.75 156.6875 101.75 C 157.144531 101.75 157.730469 101.84375 158.078125 101.933594 L 158.078125 104.042969 C 157.65625 103.910156 157.125 103.839844 156.613281 103.839844 C 153.433594 103.839844 152.566406 107.410156 152.566406 110.324219 L 152.566406 118.359375 L 150.558594 118.359375 "/>
<g clip-path="url(#clip4)" clip-rule="nonzero">
<path style=" stroke:none;fill-rule:nonzero;fill:rgb(13.725491%,12.156863%,12.54902%);fill-opacity:1;" d="M 159.910156 115.996094 C 161.121094 116.605469 162.582031 117.003906 164.15625 117.003906 C 166.058594 117.003906 167.746094 115.957031 167.746094 114.128906 C 167.746094 110.265625 159.949219 110.871094 159.949219 106.167969 C 159.949219 102.941406 162.5625 101.75 165.234375 101.75 C 166.09375 101.75 167.816406 101.933594 169.246094 102.464844 L 169.042969 104.222656 C 168 103.75 166.574219 103.453125 165.453125 103.453125 C 163.386719 103.453125 161.957031 104.09375 161.957031 106.167969 C 161.957031 109.1875 169.9375 108.800781 169.9375 114.128906 C 169.9375 117.550781 166.71875 118.722656 164.28125 118.722656 C 162.707031 118.722656 161.15625 118.542969 159.722656 117.972656 "/>
</g>
<path style=" stroke:none;fill-rule:nonzero;fill:rgb(13.725491%,12.156863%,12.54902%);fill-opacity:1;" d="M 175.542969 97.796875 L 173.527344 97.796875 L 173.527344 95.125 L 175.542969 95.125 Z M 173.527344 102.121094 L 175.542969 102.121094 L 175.542969 118.339844 L 173.527344 118.339844 L 173.527344 102.121094 "/>
<g clip-path="url(#clip5)" clip-rule="nonzero">
<path style=" stroke:none;fill-rule:nonzero;fill:rgb(13.725491%,12.156863%,12.54902%);fill-opacity:1;" d="M 193.441406 118.359375 L 191.441406 118.359375 L 191.441406 115.777344 L 191.371094 115.777344 C 190.292969 117.847656 188.625 118.722656 186.324219 118.722656 C 181.875 118.722656 179.640625 115.046875 179.640625 110.230469 C 179.640625 105.300781 181.542969 101.75 186.324219 101.75 C 189.484375 101.75 191.078125 104.058594 191.371094 104.863281 L 191.441406 104.863281 L 191.441406 94.484375 L 193.441406 94.484375 M 186.628906 117.003906 C 190.203125 117.003906 191.441406 113.199219 191.441406 110.230469 C 191.441406 107.28125 190.203125 103.453125 186.628906 103.453125 C 182.808594 103.453125 181.839844 107.078125 181.839844 110.230469 C 181.839844 113.378906 182.808594 117.003906 186.628906 117.003906 "/>
</g>
<g clip-path="url(#clip6)" clip-rule="nonzero">
<path style=" stroke:none;fill-rule:nonzero;fill:rgb(13.725491%,12.156863%,12.54902%);fill-opacity:1;" d="M 207.589844 115.738281 L 207.53125 115.738281 C 206.636719 117.683594 204.386719 118.722656 202.371094 118.722656 C 197.761719 118.722656 197.027344 115.613281 197.027344 114.144531 C 197.027344 108.707031 202.828125 108.453125 207.019531 108.453125 L 207.386719 108.453125 L 207.386719 107.628906 C 207.386719 104.863281 206.417969 103.472656 203.707031 103.472656 C 202.027344 103.472656 200.433594 103.839844 198.933594 104.792969 L 198.933594 102.847656 C 200.175781 102.246094 202.28125 101.75 203.707031 101.75 C 207.71875 101.75 209.402344 103.5625 209.402344 107.792969 L 209.402344 114.9375 C 209.402344 116.253906 209.402344 117.246094 209.5625 118.359375 L 207.589844 118.359375 M 207.386719 110.175781 L 206.816406 110.175781 C 203.359375 110.175781 199.222656 110.519531 199.222656 114.074219 C 199.222656 116.21875 200.746094 117.003906 202.59375 117.003906 C 207.3125 117.003906 207.386719 112.902344 207.386719 111.160156 L 207.386719 110.175781 "/>
</g>
<g clip-path="url(#clip7)" clip-rule="nonzero">
<path style=" stroke:none;fill-rule:nonzero;fill:rgb(13.725491%,12.156863%,12.54902%);fill-opacity:1;" d="M 227.003906 118.359375 L 225.011719 118.359375 L 225.011719 115.777344 L 224.957031 115.777344 C 223.859375 117.847656 222.214844 118.722656 219.90625 118.722656 C 215.457031 118.722656 213.207031 115.046875 213.207031 110.230469 C 213.207031 105.300781 215.128906 101.75 219.90625 101.75 C 223.074219 101.75 224.667969 104.058594 224.957031 104.863281 L 225.011719 104.863281 L 225.011719 94.484375 L 227.003906 94.484375 M 220.21875 117.003906 C 223.765625 117.003906 225.011719 113.199219 225.011719 110.230469 C 225.011719 107.28125 223.765625 103.453125 220.21875 103.453125 C 216.390625 103.453125 215.40625 107.078125 215.40625 110.230469 C 215.40625 113.378906 216.390625 117.003906 220.21875 117.003906 "/>
</g>
<g clip-path="url(#clip8)" clip-rule="nonzero">
<path style=" stroke:none;fill-rule:nonzero;fill:rgb(13.725491%,12.156863%,12.54902%);fill-opacity:1;" d="M 253.546875 118.359375 L 251.53125 118.359375 L 251.53125 115.777344 L 251.480469 115.777344 C 250.378906 117.847656 248.734375 118.722656 246.40625 118.722656 C 241.964844 118.722656 239.730469 115.046875 239.730469 110.230469 C 239.730469 105.300781 241.652344 101.75 246.40625 101.75 C 249.59375 101.75 251.1875 104.058594 251.480469 104.863281 L 251.53125 104.863281 L 251.53125 94.484375 L 253.546875 94.484375 M 246.738281 117.003906 C 250.285156 117.003906 251.53125 113.199219 251.53125 110.230469 C 251.53125 107.28125 250.285156 103.453125 246.738281 103.453125 C 242.910156 103.453125 241.925781 107.078125 241.925781 110.230469 C 241.925781 113.378906 242.910156 117.003906 246.738281 117.003906 "/>
</g>
<g clip-path="url(#clip9)" clip-rule="nonzero">
<path style=" stroke:none;fill-rule:nonzero;fill:rgb(13.725491%,12.156863%,12.54902%);fill-opacity:1;" d="M 269.25 117.847656 C 267.84375 118.417969 266.03125 118.722656 264.546875 118.722656 C 259.167969 118.722656 257.171875 115.097656 257.171875 110.230469 C 257.171875 105.285156 259.894531 101.75 264 101.75 C 268.574219 101.75 270.457031 105.433594 270.457031 109.792969 L 270.457031 110.816406 L 259.347656 110.816406 C 259.347656 114.238281 261.199219 117.003906 264.714844 117.003906 C 266.15625 117.003906 268.296875 116.417969 269.25 115.796875 M 268.261719 109.09375 C 268.261719 106.253906 267.109375 103.472656 264.125 103.472656 C 261.160156 103.472656 259.347656 106.421875 259.347656 109.09375 L 268.261719 109.09375 "/>
</g>
<path style=" stroke:none;fill-rule:nonzero;fill:rgb(13.725491%,12.156863%,12.54902%);fill-opacity:1;" d="M 283.140625 96.128906 L 288.652344 96.128906 C 296.59375 96.128906 299.746094 100.722656 299.746094 107.207031 C 299.746094 115.265625 294.363281 118.359375 287.019531 118.359375 L 283.140625 118.359375 M 285.339844 116.4375 L 287.152344 116.4375 C 293.449219 116.4375 297.546875 113.890625 297.546875 107.078125 C 297.546875 100.308594 293.5 98.050781 288.542969 98.050781 L 285.339844 98.050781 L 285.339844 116.4375 "/>
<g clip-path="url(#clip10)" clip-rule="nonzero">
<path style=" stroke:none;fill-rule:nonzero;fill:rgb(13.725491%,12.156863%,12.54902%);fill-opacity:1;" d="M 315.191406 117.847656 C 313.800781 118.417969 311.988281 118.722656 310.488281 118.722656 C 305.125 118.722656 303.109375 115.097656 303.109375 110.230469 C 303.109375 105.285156 305.839844 101.75 309.9375 101.75 C 314.53125 101.75 316.402344 105.433594 316.402344 109.792969 L 316.402344 110.816406 L 305.308594 110.816406 C 305.308594 114.238281 307.15625 117.003906 310.652344 117.003906 C 312.113281 117.003906 314.238281 116.417969 315.191406 115.796875 M 314.21875 109.09375 C 314.21875 106.253906 313.066406 103.472656 310.082031 103.472656 C 307.121094 103.472656 305.308594 106.421875 305.308594 109.09375 L 314.21875 109.09375 "/>
</g>
<g clip-path="url(#clip11)" clip-rule="nonzero">
<path style=" stroke:none;fill-rule:nonzero;fill:rgb(13.725491%,12.156863%,12.54902%);fill-opacity:1;" d="M 332.890625 114.53125 C 332.890625 115.777344 332.890625 117.042969 333 118.359375 L 331.058594 118.359375 L 331.058594 115.449219 L 331.003906 115.449219 C 330.328125 116.910156 329.121094 118.722656 325.75 118.722656 C 321.746094 118.722656 320.222656 116.050781 320.222656 112.5 L 320.222656 102.121094 L 322.21875 102.121094 L 322.21875 111.988281 C 322.21875 115.046875 323.296875 117.003906 326.0625 117.003906 C 329.738281 117.003906 330.875 113.800781 330.875 111.089844 L 330.875 102.121094 L 332.890625 102.121094 "/>
</g>
<g clip-path="url(#clip12)" clip-rule="nonzero">
<path style=" stroke:none;fill-rule:nonzero;fill:rgb(13.725491%,12.156863%,12.54902%);fill-opacity:1;" d="M 336.660156 115.996094 C 337.871094 116.605469 339.332031 117.003906 340.890625 117.003906 C 342.8125 117.003906 344.472656 115.957031 344.472656 114.128906 C 344.472656 110.265625 336.699219 110.871094 336.699219 106.167969 C 336.699219 102.941406 339.296875 101.75 341.96875 101.75 C 342.828125 101.75 344.546875 101.933594 345.972656 102.464844 L 345.792969 104.222656 C 344.734375 103.75 343.300781 103.453125 342.1875 103.453125 C 340.121094 103.453125 338.691406 104.09375 338.691406 106.167969 C 338.691406 109.1875 346.671875 108.800781 346.671875 114.128906 C 346.671875 117.550781 343.46875 118.722656 341.015625 118.722656 C 339.457031 118.722656 337.90625 118.542969 336.480469 117.972656 "/>
</g>
<g clip-path="url(#clip13)" clip-rule="nonzero">
<path style=" stroke:none;fill-rule:nonzero;fill:rgb(13.725491%,12.156863%,12.54902%);fill-opacity:1;" d="M 357.269531 103.839844 L 353.574219 103.839844 L 353.574219 114.332031 C 353.574219 115.796875 354.121094 117.003906 355.75 117.003906 C 356.5 117.003906 357.011719 116.859375 357.578125 116.640625 L 357.707031 118.285156 C 357.234375 118.488281 356.246094 118.722656 355.277344 118.722656 C 351.703125 118.722656 351.578125 116.292969 351.578125 113.324219 L 351.578125 103.839844 L 348.390625 103.839844 L 348.390625 102.121094 L 351.578125 102.121094 L 351.578125 98.21875 L 353.574219 97.503906 L 353.574219 102.121094 L 357.269531 102.121094 "/>
</g>
<g clip-path="url(#clip14)" clip-rule="nonzero">
<path style=" stroke:none;fill-rule:nonzero;fill:rgb(13.725491%,12.156863%,12.54902%);fill-opacity:1;" d="M 367.1875 101.75 C 372.441406 101.75 374.765625 105.816406 374.765625 110.230469 C 374.765625 114.660156 372.441406 118.722656 367.1875 118.722656 C 361.9375 118.722656 359.613281 114.660156 359.613281 110.230469 C 359.613281 105.816406 361.9375 101.75 367.1875 101.75 M 367.1875 117.003906 C 370.6875 117.003906 372.574219 113.984375 372.574219 110.230469 C 372.574219 106.472656 370.6875 103.453125 367.1875 103.453125 C 363.691406 103.453125 361.808594 106.472656 361.808594 110.230469 C 361.808594 113.984375 363.691406 117.003906 367.1875 117.003906 "/>
</g>
</g>
</svg>
