<?xml version="1.0" encoding="UTF-8"?>
<svg version="1.1" xmlns="http://www.w3.org/2000/svg" width="300" height="150">
<path d="M0 0 C99 0 198 0 300 0 C300 49.5 300 99 300 150 C201 150 102 150 0 150 C0 100.5 0 51 0 0 Z " fill="#3A1976" transform="translate(0,0)"/>
<path d="M0 0 C49.5 0 99 0 150 0 C150 49.5 150 99 150 150 C100.5 150 51 150 0 150 C0 100.5 0 51 0 0 Z " fill="#DCDCE9" transform="translate(0,0)"/>
<path d="M0 0 C4.62 0 9.24 0 14 0 C14 5.28 14 10.56 14 16 C14.66 15.67 15.32 15.34 16 15 C22.9207661 14.25468673 28.5794002 14.28982019 34.30859375 18.5 C36.94337768 20.83662131 38.98091601 23.09756676 41 26 C41 26.99 41 27.98 41 29 C44.96 29 48.92 29 53 29 C53 24.38 53 19.76 53 15 C57.62 15 62.24 15 67 15 C67 19.62 67 24.24 67 29 C73.05817506 28.87485845 73.05817506 28.87485845 79 28 C81.5 25.33333333 81.5 25.33333333 83 22 C87.73280537 17.18875034 91.9913275 14.71254757 98.75 14.625 C105.37680604 14.76205073 109.89668857 16.07679147 114.75 20.6484375 C119.80386325 26.21254656 121.49854351 30.92163027 121.30859375 38.44140625 C120.49337689 45.20048277 116.98924745 49.52865293 111.87890625 53.7734375 C105.89231936 57.68152125 99.93667413 57.57648109 93 57 C87.09635156 55.21776651 83.66648271 50.75733707 80 46 C79.67 45.34 79.34 44.68 79 44 C75.01434954 43.39386091 71.02725031 43.25435265 67 43 C67 47.62 67 52.24 67 57 C62.38 57 57.76 57 53 57 C53 52.38 53 47.76 53 43 C49.04 43 45.08 43 41 43 C40.67 44.32 40.34 45.64 40 47 C37.29791376 51.21634262 33.93205857 54.84131642 29.12109375 56.56640625 C23.20891183 57.77497382 17.26931636 57.78394565 11.5625 55.8125 C6.41147775 52.16909402 2.37871303 47.91308211 0 42 C-0.51255701 38.69546252 -0.46869418 35.46632545 -0.390625 32.12890625 C-0.38496521 31.206577 -0.37930542 30.28424774 -0.37347412 29.33396912 C-0.35121637 26.40960142 -0.30104047 23.48649269 -0.25 20.5625 C-0.22992127 18.57098133 -0.21167291 16.57944331 -0.1953125 14.58789062 C-0.1513864 9.72478083 -0.08243313 4.86260332 0 0 Z " fill="#391975" transform="translate(15,14)"/>
<path d="M0 0 C3 2 3 2 3.6875 4.625 C3.790625 5.40875 3.89375 6.1925 4 7 C5.98 6.67 7.96 6.34 10 6 C10 6.66 10 7.32 10 8 C9.67 8.33 9.34 8.66 9 9 C9.2475 9.8971875 9.2475 9.8971875 9.5 10.8125 C10.05940195 13.25988354 9.75858193 14.63996734 9 17 C9.99 17.33 10.98 17.66 12 18 C12 18.99 12 19.98 12 21 C12.268125 20.195625 12.53625 19.39125 12.8125 18.5625 C13.204375 17.716875 13.59625 16.87125 14 16 C14.99 15.67 15.98 15.34 17 15 C16.67 14.34 16.34 13.68 16 13 C15.01 13.33 14.02 13.66 13 14 C13 11.36 13 8.72 13 6 C13.66 6.66 14.32 7.32 15 8 C15.61875 7.67 16.2375 7.34 16.875 7 C19 6 19 6 21 6 C21.66 5.01 22.32 4.02 23 3 C23.99 3 24.98 3 26 3 C26 2.34 26 1.68 26 1 C28.475 1.495 28.475 1.495 31 2 C31 2.66 31 3.32 31 4 C31.66 4.33 32.32 4.66 33 5 C33 7.31 33 9.62 33 12 C33.66 12 34.32 12 35 12 C35 12.66 35 13.32 35 14 C33.35 14 31.7 14 30 14 C29.505 11.525 29.505 11.525 29 9 C28.67 9.33 28.34 9.66 28 10 C28 11.32 28 12.64 28 14 C27.34 14 26.68 14 26 14 C26 13.34 26 12.68 26 12 C25.01 12 24.02 12 23 12 C22.67 13.98 22.34 15.96 22 18 C22.99 18 23.98 18 25 18 C25 19.98 25 21.96 25 24 C25.66 24 26.32 24 27 24 C27 22.02 27 20.04 27 18 C30.375 17.875 30.375 17.875 34 18 C34.66 18.66 35.32 19.32 36 20 C36.33 19.34 36.66 18.68 37 18 C37.66 18 38.32 18 39 18 C39 20.64 39 23.28 39 26 C38.01 26 37.02 26 36 26 C38.9685582 27.26900206 38.9685582 27.26900206 42 26.375 C45 26 45 26 46.875 27.4375 C47.24625 27.953125 47.6175 28.46875 48 29 C48 28.34 48 27.68 48 27 C48.70125 27.144375 49.4025 27.28875 50.125 27.4375 C53.07556141 28.01478375 56.03270151 28.51695141 59 29 C58.67 31.97 58.34 34.94 58 38 C56.02 38 54.04 38 52 38 C52.66 36.35 53.32 34.7 54 33 C52.35 32.67 50.7 32.34 49 32 C49 33.98 49 35.96 49 38 C48.34 38 47.68 38 47 38 C47 36.02 47 34.04 47 32 C46.01 32 45.02 32 44 32 C44 31.01 44 30.02 44 29 C42.68 28.67 41.36 28.34 40 28 C40 28.66 40 29.32 40 30 C40.99 30 41.98 30 43 30 C43 32.64 43 35.28 43 38 C42.01 38 41.02 38 40 38 C39.67 37.34 39.34 36.68 39 36 C38.505 36.99 38.505 36.99 38 38 C37.01 38 36.02 38 35 38 C35 35.03 35 32.06 35 29 C34.34 28.67 33.68 28.34 33 28 C33.495 27.505 33.495 27.505 34 27 C33.01 27.33 32.02 27.66 31 28 C31 28.66 31 29.32 31 30 C31.66 30 32.32 30 33 30 C33 32.31 33 34.62 33 37 C30.625 37.625 30.625 37.625 28 38 C25.64046906 35.64046906 25.50858587 34.22104383 25 31 C24.34 32.32 23.68 33.64 23 35 C23.66 35.99 24.32 36.98 25 38 C24.46375 37.79375 23.9275 37.5875 23.375 37.375 C20.16732692 36.8685253 17.98682934 37.84599775 15 39 C14.01 38.01 13.02 37.02 12 36 C11.67 36.66 11.34 37.32 11 38 C10.34 38 9.68 38 9 38 C9 34.04 9 30.08 9 26 C7.68 26 6.36 26 5 26 C5.33 24.68 5.66 23.36 6 22 C5.34 22 4.68 22 4 22 C3.67 23.32 3.34 24.64 3 26 C1.35 26 -0.3 26 -2 26 C-2 26.66 -2 27.32 -2 28 C-2.66 28.33 -3.32 28.66 -4 29 C-3.67 29.33 -3.34 29.66 -3 30 C-2.34 30 -1.68 30 -1 30 C-1.185625 30.763125 -1.37125 31.52625 -1.5625 32.3125 C-2.22819173 35.08967375 -2.22819173 35.08967375 -1 38 C-3 38 -5 38 -7 38 C-7 34.37 -7 30.74 -7 27 C-8.32 26.34 -9.64 25.68 -11 25 C-12 24 -12 24 -12.125 21.6875 C-12.0134256 19.28865048 -11.57784795 17.31139179 -11 15 C-11.33 14.67 -11.66 14.34 -12 14 C-12.14115161 11.32941149 -12.04247107 8.67567762 -12 6 C-10.02 6 -8.04 6 -6 6 C-6.185625 6.763125 -6.37125 7.52625 -6.5625 8.3125 C-7.22819173 11.08967375 -7.22819173 11.08967375 -6 14 C-4.12612784 14.80212628 -4.12612784 14.80212628 -1.9375 15.1875 C-1.20402344 15.34605469 -0.47054687 15.50460938 0.28515625 15.66796875 C0.85105469 15.77753906 1.41695312 15.88710938 2 16 C2 15.67 2 15.34 2 15 C1.030625 14.690625 0.06125 14.38125 -0.9375 14.0625 C-4 13 -4 13 -5 12 C-5.45459858 9.34536879 -5.70243238 6.67810862 -6 4 C-5.01 3.67 -4.02 3.34 -3 3 C-1.33289654 1.50014391 -1.33289654 1.50014391 0 0 Z " fill="#3D2078" transform="translate(178,9)"/>
<path d="M0 0 C0.66 0.33 1.32 0.66 2 1 C1.67 1.99 1.34 2.98 1 4 C3.63904371 5.41377341 6.07120629 6.37240135 9 7 C9 6.34 9 5.68 9 5 C8.01 4.67 7.02 4.34 6 4 C6.33 2.68 6.66 1.36 7 0 C8.32 0 9.64 0 11 0 C11 0.66 11 1.32 11 2 C10.01 2 9.02 2 8 2 C8.99 2.66 9.98 3.32 11 4 C11 5.32 11 6.64 11 8 C-0.52164009 10.11161731 -0.52164009 10.11161731 -6 11 C-5.34 11.33 -4.68 11.66 -4 12 C-3.59270772 14.32156597 -3.25561323 16.6568787 -3 19 C-2.67 16.69 -2.34 14.38 -2 12 C-0.35 12 1.3 12 3 12 C3 13.65 3 15.3 3 17 C2.01 17 1.02 17 0 17 C0 17.66 0 18.32 0 19 C1.32 19 2.64 19 4 19 C4.33 19.66 4.66 20.32 5 21 C5.99 17.535 5.99 17.535 7 14 C8.32 14 9.64 14 11 14 C11.66 15.32 12.32 16.64 13 18 C13.268125 17.05125 13.53625 16.1025 13.8125 15.125 C15 12 15 12 18 10 C16.35 8.68 14.7 7.36 13 6 C13.33 4.35 13.66 2.7 14 1 C16.375 0.375 16.375 0.375 19 0 C21.39763185 2.39763185 21.34280586 3.33273498 21.625 6.625 C21.69976562 7.44226563 21.77453125 8.25953125 21.8515625 9.1015625 C21.90054688 9.72804688 21.94953125 10.35453125 22 11 C23.32 11.33 24.64 11.66 26 12 C26 12.66 26 13.32 26 14 C25.34 14 24.68 14 24 14 C24.495 16.475 24.495 16.475 25 19 C25.66 19 26.32 19 27 19 C26.88637738 17.5199159 26.75877092 16.04089926 26.625 14.5625 C26.52058594 13.32693359 26.52058594 13.32693359 26.4140625 12.06640625 C26.20910156 11.04353516 26.20910156 11.04353516 26 10 C25.34 9.67 24.68 9.34 24 9 C23.67 9.66 23.34 10.32 23 11 C23.33 7.7 23.66 4.4 24 1 C24.33 1 24.66 1 25 1 C25.495 3.475 25.495 3.475 26 6 C26.66 6 27.32 6 28 6 C28.33 4.35 28.66 2.7 29 1 C29.33 1 29.66 1 30 1 C30.125 6.75 30.125 6.75 29 9 C29.66 9 30.32 9 31 9 C30.67 10.65 30.34 12.3 30 14 C30.99 14.33 31.98 14.66 33 15 C33.33 14.34 33.66 13.68 34 13 C34 15.64 34 18.28 34 21 C34.66 21 35.32 21 36 21 C36 21.99 36 22.98 36 24 C35.34 24 34.68 24 34 24 C34 26.64 34 29.28 34 32 C33.34 32 32.68 32 32 32 C31.505 31.01 31.505 31.01 31 30 C30.67 30.66 30.34 31.32 30 32 C29.34 32 28.68 32 28 32 C27.505 30.515 27.505 30.515 27 29 C26.34 29.99 25.68 30.98 25 32 C21.875 32.1875 21.875 32.1875 19 32 C19.8125 29.0625 19.8125 29.0625 21 26 C24 25 24 25 25 25 C24.505 23.02 24.505 23.02 24 21 C23.34 21 22.68 21 22 21 C22 18.69 22 16.38 22 14 C21.7525 15.11375 21.505 16.2275 21.25 17.375 C20 21 20 21 17.875 22.4375 C17.25625 22.623125 16.6375 22.80875 16 23 C16.2475 23.928125 16.2475 23.928125 16.5 24.875 C17 27 17 27 17 29 C15.68 29 14.36 29 13 29 C13 29.66 13 30.32 13 31 C14.32 31.33 15.64 31.66 17 32 C15.35 32 13.7 32 12 32 C11.67 30.68 11.34 29.36 11 28 C10.01 29.65 9.02 31.3 8 33 C6.68 32.67 5.36 32.34 4 32 C4 31.01 4 30.02 4 29 C2.02 29 0.04 29 -2 29 C-2 29.66 -2 30.32 -2 31 C-0.68 31.33 0.64 31.66 2 32 C0.35 32 -1.3 32 -3 32 C-3.09765625 25.84765625 -3.09765625 25.84765625 -3 24 C-2.67 23.67 -2.34 23.34 -2 23 C-3.32 22.34 -4.64 21.68 -6 21 C-6 19.68 -6 18.36 -6 17 C-6.99 17 -7.98 17 -9 17 C-9 17.99 -9 18.98 -9 20 C-9.66 20 -10.32 20 -11 20 C-11 17.36 -11 14.72 -11 12 C-10.34 12 -9.68 12 -9 12 C-9 12.99 -9 13.98 -9 15 C-8.01 15 -7.02 15 -6 15 C-6 14.34 -6 13.68 -6 13 C-6.66 13 -7.32 13 -8 13 C-8 12.34 -8 11.68 -8 11 C-8.66 11 -9.32 11 -10 11 C-11.60725635 7.78548731 -11.05748185 4.56387464 -11 1 C-10.34 1 -9.68 1 -9 1 C-9 2.98 -9 4.96 -9 7 C-8.34 7 -7.68 7 -7 7 C-7.33 6.01 -7.66 5.02 -8 4 C-7.34 3.01 -6.68 2.02 -6 1 C-5.34 2.98 -4.68 4.96 -4 7 C-2.68 4.69 -1.36 2.38 0 0 Z " fill="#664D94" transform="translate(177,103)"/>
<path d="M0 0 C1.32 0 2.64 0 4 0 C4.33 0.99 4.66 1.98 5 3 C5.33 2.01 5.66 1.02 6 0 C6.99 0 7.98 0 9 0 C9 1.98 9 3.96 9 6 C9.66 6 10.32 6 11 6 C11 4.02 11 2.04 11 0 C14.375 -0.125 14.375 -0.125 18 0 C18.66 0.66 19.32 1.32 20 2 C20.33 1.34 20.66 0.68 21 0 C21.66 0 22.32 0 23 0 C23 2.64 23 5.28 23 8 C22.01 8 21.02 8 20 8 C22.9685582 9.26900206 22.9685582 9.26900206 26 8.375 C29 8 29 8 30.875 9.4375 C31.24625 9.953125 31.6175 10.46875 32 11 C32 10.34 32 9.68 32 9 C32.70125 9.144375 33.4025 9.28875 34.125 9.4375 C37.07556141 10.01478375 40.03270151 10.51695141 43 11 C42.67 13.97 42.34 16.94 42 20 C40.02 20 38.04 20 36 20 C36.66 18.35 37.32 16.7 38 15 C35.525 14.505 35.525 14.505 33 14 C33 15.98 33 17.96 33 20 C32.34 20 31.68 20 31 20 C31 18.02 31 16.04 31 14 C30.01 14 29.02 14 28 14 C28 13.01 28 12.02 28 11 C26.68 10.67 25.36 10.34 24 10 C24 10.66 24 11.32 24 12 C24.99 12 25.98 12 27 12 C27 14.64 27 17.28 27 20 C26.01 20 25.02 20 24 20 C23.67 19.34 23.34 18.68 23 18 C22.67 18.66 22.34 19.32 22 20 C21.01 20 20.02 20 19 20 C19 17.03 19 14.06 19 11 C18.34 10.67 17.68 10.34 17 10 C17.33 9.67 17.66 9.34 18 9 C17.01 9.33 16.02 9.66 15 10 C15 10.66 15 11.32 15 12 C15.66 12 16.32 12 17 12 C17 14.31 17 16.62 17 19 C14.625 19.625 14.625 19.625 12 20 C9.64046906 17.64046906 9.50858587 16.22104383 9 13 C8.34 14.32 7.68 15.64 7 17 C7.66 17.99 8.32 18.98 9 20 C8.401875 19.814375 7.80375 19.62875 7.1875 19.4375 C4.83591238 18.77906313 4.83591238 18.77906313 2 20 C2 17.36 2 14.72 2 12 C2.99 12.33 3.98 12.66 5 13 C5.33 12.34 5.66 11.68 6 11 C6.66 11 7.32 11 8 11 C8 10.34 8 9.68 8 9 C5.03 8.67 2.06 8.34 -1 8 C-1 7.34 -1 6.68 -1 6 C-0.34 5.67 0.32 5.34 1 5 C0.34 4.67 -0.32 4.34 -1 4 C-0.67 2.68 -0.34 1.36 0 0 Z " fill="#3F2579" transform="translate(194,27)"/>
<path d="M0 0 C2.475 0.495 2.475 0.495 5 1 C5 1.66 5 2.32 5 3 C5.66 3.33 6.32 3.66 7 4 C7 6.31 7 8.62 7 11 C7.66 11 8.32 11 9 11 C9 11.66 9 12.32 9 13 C7.35 13 5.7 13 4 13 C3.67 11.35 3.34 9.7 3 8 C2.67 8.33 2.34 8.66 2 9 C2 10.32 2 11.64 2 13 C1.34 13 0.68 13 0 13 C0 12.34 0 11.68 0 11 C-0.99 11 -1.98 11 -3 11 C-3.33 15.29 -3.66 19.58 -4 24 C-4.33 22.68 -4.66 21.36 -5 20 C-6.32 19.67 -7.64 19.34 -9 19 C-8.01 19 -7.02 19 -6 19 C-6 18.34 -6 17.68 -6 17 C-7.98491642 17.26676204 -7.98491642 17.26676204 -10 18 C-10.33 18.99 -10.66 19.98 -11 21 C-10.01 21.33 -9.02 21.66 -8 22 C-8.99 22.33 -9.98 22.66 -11 23 C-11 23.66 -11 24.32 -11 25 C-9.35 24.67 -7.7 24.34 -6 24 C-6 24.66 -6 25.32 -6 26 C-4.68 26 -3.36 26 -2 26 C-2 26.66 -2 27.32 -2 28 C-2.66 28 -3.32 28 -4 28 C-4.33 28.99 -4.66 29.98 -5 31 C-5.33 30.34 -5.66 29.68 -6 29 C-6.66 29 -7.32 29 -8 29 C-8 31.64 -8 34.28 -8 37 C-9.485 37.495 -9.485 37.495 -11 38 C-11.99 37.01 -12.98 36.02 -14 35 C-14.33 35.66 -14.66 36.32 -15 37 C-15.66 37 -16.32 37 -17 37 C-16.98839844 36.15695313 -16.97679687 35.31390625 -16.96484375 34.4453125 C-16.95582031 33.34960938 -16.94679687 32.25390625 -16.9375 31.125 C-16.92589844 30.03445312 -16.91429687 28.94390625 -16.90234375 27.8203125 C-16.80255697 25.04822454 -16.80255697 25.04822454 -18 23 C-17.01 23 -16.02 23 -15 23 C-15 23.66 -15 24.32 -15 25 C-14.34 25 -13.68 25 -13 25 C-13.20625 24.46375 -13.4125 23.9275 -13.625 23.375 C-14.14345053 20.09147996 -13.33599181 18.00598158 -12 15 C-11.01 14.67 -10.02 14.34 -9 14 C-9.33 13.34 -9.66 12.68 -10 12 C-10.99 12.33 -11.98 12.66 -13 13 C-13 10.36 -13 7.72 -13 5 C-12.34 5.66 -11.68 6.32 -11 7 C-10.38125 6.67 -9.7625 6.34 -9.125 6 C-7 5 -7 5 -5 5 C-4.34 4.01 -3.68 3.02 -3 2 C-2.01 2 -1.02 2 0 2 C0 1.34 0 0.68 0 0 Z " fill="#391E72" transform="translate(204,10)"/>
<path d="M0 0 C1.67542976 0.28604898 3.34385343 0.61781233 5 1 C6.31626692 4.61973402 7 7.09567131 7 11 C8.32 11.33 9.64 11.66 11 12 C11 12.66 11 13.32 11 14 C10.34 14 9.68 14 9 14 C9.33 15.65 9.66 17.3 10 19 C10.66 19 11.32 19 12 19 C11.88637738 17.5199159 11.75877092 16.04089926 11.625 14.5625 C11.55539063 13.73878906 11.48578125 12.91507813 11.4140625 12.06640625 C11.20910156 11.04353516 11.20910156 11.04353516 11 10 C10.34 9.67 9.68 9.34 9 9 C8.67 9.66 8.34 10.32 8 11 C8.33 7.7 8.66 4.4 9 1 C9.33 1 9.66 1 10 1 C10.33 2.65 10.66 4.3 11 6 C11.66 6 12.32 6 13 6 C13.33 4.35 13.66 2.7 14 1 C14.33 1 14.66 1 15 1 C15.125 6.75 15.125 6.75 14 9 C14.66 9 15.32 9 16 9 C15.67 10.65 15.34 12.3 15 14 C15.99 14.33 16.98 14.66 18 15 C18.33 14.34 18.66 13.68 19 13 C19 15.64 19 18.28 19 21 C19.66 21 20.32 21 21 21 C21 21.99 21 22.98 21 24 C20.34 24 19.68 24 19 24 C19 26.64 19 29.28 19 32 C18.34 32 17.68 32 17 32 C16.67 31.34 16.34 30.68 16 30 C15.67 30.66 15.34 31.32 15 32 C14.34 32 13.68 32 13 32 C12.67 31.01 12.34 30.02 12 29 C11.34 29.99 10.68 30.98 10 32 C6.875 32.1875 6.875 32.1875 4 32 C4.8125 29.0625 4.8125 29.0625 6 26 C9 25 9 25 10 25 C9.67 23.68 9.34 22.36 9 21 C8.34 21 7.68 21 7 21 C7 18.69 7 16.38 7 14 C6.34 15.65 5.68 17.3 5 19 C3.68 19 2.36 19 1 19 C0.875 15.625 0.875 15.625 1 12 C1.66 11.34 2.32 10.68 3 10 C1.35 8.68 -0.3 7.36 -2 6 C-1.125 1.125 -1.125 1.125 0 0 Z " fill="#381A74" transform="translate(192,103)"/>
<path d="M0 0 C0.99 0.33 1.98 0.66 3 1 C3 2.65 3 4.3 3 6 C3.33 4.35 3.66 2.7 4 1 C5.32 0.67 6.64 0.34 8 0 C8.33 1.98 8.66 3.96 9 6 C9.66 6 10.32 6 11 6 C11.33 4.02 11.66 2.04 12 0 C13.45792884 -0.05399736 14.91642712 -0.09279177 16.375 -0.125 C17.18710938 -0.14820312 17.99921875 -0.17140625 18.8359375 -0.1953125 C21 0 21 0 23 2 C22.67028521 5.29714793 22.3773161 6.6226839 20 9 C17.375 9.125 17.375 9.125 15 9 C14.67 10.32 14.34 11.64 14 13 C12.35 13 10.7 13 9 13 C9 13.99 9 14.98 9 16 C7.68 16 6.36 16 5 16 C5 16.66 5 17.32 5 18 C6.65 18 8.3 18 10 18 C7.25129997 19.86911602 5.8929705 19.99426628 2.5 19.8125 C-0.86981279 19.03022203 -2.62229804 18.47281004 -5 16 C-5 15.01 -5 14.02 -5 13 C-7.475 12.01 -7.475 12.01 -10 11 C-9.67 10.34 -9.34 9.68 -9 9 C-8.01 9 -7.02 9 -6 9 C-6 9.99 -6 10.98 -6 12 C-2.65747276 12.07427838 -0.1964086 12.06546953 3 11 C3.33 11.33 3.66 11.66 4 12 C5.98 11.34 7.96 10.68 10 10 C9.01 9.01 8.02 8.02 7 7 C6.67 7.66 6.34 8.32 6 9 C4.02 9 2.04 9 0 9 C0 6.03 0 3.06 0 0 Z M-11 13 C-7 14 -7 14 -7 14 Z " fill="#391779" transform="translate(203,83)"/>
<path d="M0 0 C0.99 0 1.98 0 3 0 C3.66 1.32 4.32 2.64 5 4 C5.33 2.68 5.66 1.36 6 0 C7.65 0 9.3 0 11 0 C11.66 1.32 12.32 2.64 13 4 C13.66 2.68 14.32 1.36 15 0 C15.66 1.32 16.32 2.64 17 4 C17.33 2.68 17.66 1.36 18 0 C19.65 0 21.3 0 23 0 C22.01 0.33 21.02 0.66 20 1 C20 1.66 20 2.32 20 3 C20.99 3 21.98 3 23 3 C23.33 4.98 23.66 6.96 24 9 C23.01 9.33 22.02 9.66 21 10 C21 10.66 21 11.32 21 12 C22.65 12 24.3 12 26 12 C26.33 12.66 26.66 13.32 27 14 C25.35 14 23.7 14 22 14 C22.33 15.32 22.66 16.64 23 18 C24.32 18 25.64 18 27 18 C27 18.66 27 19.32 27 20 C25.72125 20.144375 24.4425 20.28875 23.125 20.4375 C20.74307106 20.70642746 19.15547309 20.92226346 17 22 C14.875 21.0625 14.875 21.0625 13 20 C13.33 19.34 13.66 18.68 14 18 C14.66 18.33 15.32 18.66 16 19 C16 18.34 16 17.68 16 17 C14.68 16.67 13.36 16.34 12 16 C11.67 14.35 11.34 12.7 11 11 C12.32 10.01 13.64 9.02 15 8 C13.906875 8.185625 12.81375 8.37125 11.6875 8.5625 C8 9 8 9 5 8 C4.34 7.01 3.68 6.02 3 5 C2.67 5.99 2.34 6.98 2 8 C1.34 8 0.68 8 0 8 C0 5.36 0 2.72 0 0 Z " fill="#7962A2" transform="translate(170,59)"/>
<path d="M0 0 C0.33 0 0.66 0 1 0 C2.03239711 11.47107898 2.03239711 11.47107898 -1.625 16.5 C-5.18101084 20.54359625 -8.84787531 23.2826251 -14 25 C-16.06145107 25.068991 -18.12501401 25.08467727 -20.1875 25.0625 C-21.81751953 25.04896484 -21.81751953 25.04896484 -23.48046875 25.03515625 C-24.31191406 25.02355469 -25.14335938 25.01195313 -26 25 C-26.33 24.34 -26.66 23.68 -27 23 C-24.03 23 -21.06 23 -18 23 C-18.66 22.34 -19.32 21.68 -20 21 C-17.36 21 -14.72 21 -12 21 C-12 20.34 -12 19.68 -12 19 C-12.66 18.67 -13.32 18.34 -14 18 C-14.625 14.9375 -14.625 14.9375 -15 12 C-17.31 12.33 -19.62 12.66 -22 13 C-21.443125 12.7525 -20.88625 12.505 -20.3125 12.25 C-17.84266607 11.02523214 -17.84266607 11.02523214 -15.5 8.8125 C-13 7 -13 7 -10.6875 7.25 C-10.130625 7.4975 -9.57375 7.745 -9 8 C-9 8.66 -9 9.32 -9 10 C-8.34 10 -7.68 10 -7 10 C-6.9175 9.05125 -6.835 8.1025 -6.75 7.125 C-6 4 -6 4 -3.9375 2.625 C-3.298125 2.41875 -2.65875 2.2125 -2 2 C-1.67 2.33 -1.34 2.66 -1 3 C-0.67 2.01 -0.34 1.02 0 0 Z " fill="#371872" transform="translate(134,46)"/>
<path d="M0 0 C-0.14308594 0.93972656 -0.14308594 0.93972656 -0.2890625 1.8984375 C-0.45535156 3.12433594 -0.45535156 3.12433594 -0.625 4.375 C-0.74101562 5.18710938 -0.85703125 5.99921875 -0.9765625 6.8359375 C-0.98429687 7.55007812 -0.99203125 8.26421875 -1 9 C1.35953094 11.35953094 2.77895617 11.49141413 6 12 C4.03617993 13.50559539 2.21736634 14.89131683 0 16 C-0.65772428 19.02934491 -0.65772428 19.02934491 -1 22 C-4 20 -4 20 -5 17 C-5.66 17 -6.32 17 -7 17 C-7.99 19.31 -8.98 21.62 -10 24 C-9.34 24.33 -8.68 24.66 -8 25 C-10.31 25 -12.62 25 -15 25 C-13.68 24.67 -12.36 24.34 -11 24 C-11 23.34 -11 22.68 -11 22 C-12.32 22 -13.64 22 -15 22 C-15 21.34 -15 20.68 -15 20 C-14.01 20 -13.02 20 -12 20 C-12 19.34 -12 18.68 -12 18 C-12.99 17.67 -13.98 17.34 -15 17 C-14.01 17 -13.02 17 -12 17 C-12 16.34 -12 15.68 -12 15 C-13.65 15 -15.3 15 -17 15 C-17 17.31 -17 19.62 -17 22 C-17.66 22.33 -18.32 22.66 -19 23 C-19 20.36 -19 17.72 -19 15 C-19.99 14.67 -20.98 14.34 -22 14 C-18.39821412 11.59880941 -15.49133631 11.56228678 -11.3125 11.375 C-10.61060547 11.33632812 -9.90871094 11.29765625 -9.18554688 11.2578125 C-7.45745345 11.1637666 -5.72876325 11.0808032 -4 11 C-4 9.68 -4 8.36 -4 7 C-5.32 6.34 -6.64 5.68 -8 5 C-7.34 4.67 -6.68 4.34 -6 4 C-5.34 4.33 -4.68 4.66 -4 5 C-4 4.34 -4 3.68 -4 3 C-5.32 3.33 -6.64 3.66 -8 4 C-8 4.99 -8 5.98 -8 7 C-7.34 7.33 -6.68 7.66 -6 8 C-6 8.66 -6 9.32 -6 10 C-7.65 10 -9.3 10 -11 10 C-11 9.01 -11 8.02 -11 7 C-11.20625 6.319375 -11.4125 5.63875 -11.625 4.9375 C-11.74875 4.298125 -11.8725 3.65875 -12 3 C-8.6463584 -0.3536416 -4.57608788 0 0 0 Z " fill="#331570" transform="translate(192,100)"/>
<path d="M0 0 C0.99 0.33 1.98 0.66 3 1 C3 1.66 3 2.32 3 3 C3.99 3 4.98 3 6 3 C9 8.75 9 8.75 9 11 C7.68 11 6.36 11 5 11 C5.66 12.32 6.32 13.64 7 15 C7.66 15 8.32 15 9 15 C9 17.64 9 20.28 9 23 C7.68 22.34 6.36 21.68 5 21 C4.67 21.66 4.34 22.32 4 23 C3.01 23 2.02 23 1 23 C0.67 21.02 0.34 19.04 0 17 C-0.33 17.99 -0.66 18.98 -1 20 C-1.99 20 -2.98 20 -4 20 C-4 20.66 -4 21.32 -4 22 C-3.01 22.33 -2.02 22.66 -1 23 C-2.65 23 -4.3 23 -6 23 C-6 20.36 -6 17.72 -6 15 C-5.05125 14.773125 -4.1025 14.54625 -3.125 14.3125 C0.13866268 13.31177013 0.13866268 13.31177013 1.375 10.625 C2.15441368 7.80119238 2.15441368 7.80119238 2 4 C0.68 6.31 -0.64 8.62 -2 11 C-2.66 11 -3.32 11 -4 11 C-7 5.375 -7 5.375 -7 2 C-6.030625 1.855625 -5.06125 1.71125 -4.0625 1.5625 C-1.13513227 1.32437659 -1.13513227 1.32437659 0 0 Z " fill="#695096" transform="translate(172,68)"/>
<path d="M0 0 C0.33 0.66 0.66 1.32 1 2 C1.99 2 2.98 2 4 2 C4 2.99 4 3.98 4 5 C1.525 4.505 1.525 4.505 -1 4 C-1.36552803 5.41377782 -1.71695495 6.83120576 -2.0625 8.25 C-2.25972656 9.03890625 -2.45695312 9.8278125 -2.66015625 10.640625 C-3.01497267 13.10394822 -2.76877544 14.65604132 -2 17 C-4.45840605 17.02691685 -6.91651882 17.04679802 -9.375 17.0625 C-10.07367188 17.07087891 -10.77234375 17.07925781 -11.4921875 17.08789062 C-16.7734375 17.11328125 -16.7734375 17.11328125 -19 16 C-19 18.97 -19 21.94 -19 25 C-19.66 25 -20.32 25 -21 25 C-21 22.03 -21 19.06 -21 16 C-21.66 16 -22.32 16 -23 16 C-23.33 17.32 -23.66 18.64 -24 20 C-24.66 17.03 -25.32 14.06 -26 11 C-25.14535156 11.15597656 -24.29070312 11.31195313 -23.41015625 11.47265625 C-22.30542969 11.66730469 -21.20070312 11.86195312 -20.0625 12.0625 C-18.96035156 12.25972656 -17.85820312 12.45695312 -16.72265625 12.66015625 C-15.82417969 12.77230469 -14.92570313 12.88445312 -14 13 C-13.67 12.67 -13.34 12.34 -13 12 C-10.32941149 11.85884839 -7.67567762 11.95752893 -5 12 C-5 11.34 -5 10.68 -5 10 C-6.32 10.33 -7.64 10.66 -9 11 C-9.33 9.35 -9.66 7.7 -10 6 C-8.68 5.67 -7.36 5.34 -6 5 C-8.475 4.505 -8.475 4.505 -11 4 C-11 3.34 -11 2.68 -11 2 C-11.66 1.67 -12.32 1.34 -13 1 C-11.39602723 0.83147753 -9.7918131 0.66525114 -8.1875 0.5 C-7.29417969 0.4071875 -6.40085938 0.314375 -5.48046875 0.21875 C-3 0 -3 0 0 0 Z " fill="#371973" transform="translate(202,67)"/>
<path d="M0 0 C1.98 0 3.96 0 6 0 C5.814375 0.804375 5.62875 1.60875 5.4375 2.4375 C5.2209375 3.7059375 5.2209375 3.7059375 5 5 C5.33 5.33 5.66 5.66 6 6 C6.04063832 7.66617115 6.042721 9.33388095 6 11 C7.32 11.66 8.64 12.32 10 13 C10 13.99 10 14.98 10 16 C11.32 16.66 12.64 17.32 14 18 C12.68 18 11.36 18 10 18 C10 19.32 10 20.64 10 22 C9.34 22.33 8.68 22.66 8 23 C8.33 23.33 8.66 23.66 9 24 C9.66 24 10.32 24 11 24 C10.814375 24.763125 10.62875 25.52625 10.4375 26.3125 C9.77180827 29.08967375 9.77180827 29.08967375 11 32 C9 32 7 32 5 32 C5 28.37 5 24.74 5 21 C3.68 20.34 2.36 19.68 1 19 C0 18 0 18 -0.125 15.6875 C-0.0134256 13.28865048 0.42215205 11.31139179 1 9 C0.67 8.67 0.34 8.34 0 8 C-0.14115161 5.32941149 -0.04247107 2.67567762 0 0 Z " fill="#3C2173" transform="translate(166,15)"/>
<path d="M0 0 C0.45375 0.639375 0.9075 1.27875 1.375 1.9375 C2.83921726 4.09702406 2.83921726 4.09702406 5 5 C5.969375 4.79375 6.93875 4.5875 7.9375 4.375 C11 4 11 4 12.875 5.4375 C13.431875 6.2109375 13.431875 6.2109375 14 7 C14 6.34 14 5.68 14 5 C14.70125 5.144375 15.4025 5.28875 16.125 5.4375 C19.07556141 6.01478375 22.03270151 6.51695141 25 7 C24.67 9.97 24.34 12.94 24 16 C22.02 16 20.04 16 18 16 C18.66 14.35 19.32 12.7 20 11 C17.525 10.505 17.525 10.505 15 10 C15 11.98 15 13.96 15 16 C14.34 16 13.68 16 13 16 C13 14.02 13 12.04 13 10 C12.01 10 11.02 10 10 10 C10 9.01 10 8.02 10 7 C8.68 6.67 7.36 6.34 6 6 C6 6.66 6 7.32 6 8 C6.99 8 7.98 8 9 8 C9 10.64 9 13.28 9 16 C8.01 16 7.02 16 6 16 C5.67 15.34 5.34 14.68 5 14 C4.67 14.66 4.34 15.32 4 16 C3.01 16 2.02 16 1 16 C1 13.03 1 10.06 1 7 C0.34 6.67 -0.32 6.34 -1 6 C-0.67 5.67 -0.34 5.34 0 5 C0.04063832 3.33382885 0.042721 1.66611905 0 0 Z " fill="#40247D" transform="translate(212,31)"/>
<path d="M0 0 C2.25060133 1.12530066 3.48656345 1.9820846 5 4 C4.79361673 7.92128219 3.50467724 10.99438731 1 14 C-2.80117244 15.10579562 -4.89653848 15.59417159 -8.4375 13.6875 C-10 12 -10 12 -10 10 C-10.804375 10.020625 -11.60875 10.04125 -12.4375 10.0625 C-15 10 -15 10 -16 9 C-16.125 6 -16.125 6 -16 3 C-15 2 -15 2 -12.4375 1.9375 C-11.2309375 1.9684375 -11.2309375 1.9684375 -10 2 C-10 2.66 -10 3.32 -10 4 C-11.65 4 -13.3 4 -15 4 C-14.67 5.32 -14.34 6.64 -14 8 C-12.35 8 -10.7 8 -9 8 C-8.67 6.02 -8.34 4.04 -8 2 C-7.01 2 -6.02 2 -5 2 C-5 2.66 -5 3.32 -5 4 C-3.35 3.34 -1.7 2.68 0 2 C0 1.34 0 0.68 0 0 Z " fill="#775EA0" transform="translate(249,57)"/>
<path d="M0 0 C1.875 1 1.875 1 3 3 C3.46534882 5.75762265 3.51052409 8.24661164 3 11 C0.82200662 13.68060724 -0.61001305 13.93500217 -4 14.5 C-7 14 -7 14 -9.4375 11.875 C-11 9 -11 9 -11 5.875 C-9.05291686 0.27713596 -5.68720713 -0.72602644 0 0 Z " fill="#D8D5E7" transform="translate(118,43)"/>
<path d="M0 0 C1.875 1.0625 1.875 1.0625 3 3 C3.50030235 6.93094707 3.5996142 9.1005787 1.375 12.4375 C-1.7370662 14.48491197 -3.34394496 14.68551032 -7 14 C-9.4375 11.875 -9.4375 11.875 -11 9 C-11 5.47602562 -10.68152223 3.75724692 -8.3125 1.125 C-5.30746287 -0.33690996 -3.30322178 -0.42168789 0 0 Z " fill="#D8D7E7" transform="translate(40,43)"/>
<path d="M0 0 C0.66 0.33 1.32 0.66 2 1 C1.67 1.99 1.34 2.98 1 4 C3.63904371 5.41377341 6.07120629 6.37240135 9 7 C9 6.34 9 5.68 9 5 C8.01 4.67 7.02 4.34 6 4 C6.33 2.68 6.66 1.36 7 0 C8.32 0 9.64 0 11 0 C11 0.66 11 1.32 11 2 C10.01 2 9.02 2 8 2 C8.99 2.66 9.98 3.32 11 4 C11 5.32 11 6.64 11 8 C-0.52164009 10.11161731 -0.52164009 10.11161731 -6 11 C-5.34 11.33 -4.68 11.66 -4 12 C-4 14.64 -4 17.28 -4 20 C-4.66 20 -5.32 20 -6 20 C-6 19.01 -6 18.02 -6 17 C-6.99 17 -7.98 17 -9 17 C-9 17.99 -9 18.98 -9 20 C-9.66 20 -10.32 20 -11 20 C-11 17.36 -11 14.72 -11 12 C-10.34 12 -9.68 12 -9 12 C-9 12.99 -9 13.98 -9 15 C-8.01 15 -7.02 15 -6 15 C-6 14.34 -6 13.68 -6 13 C-6.66 13 -7.32 13 -8 13 C-8 12.34 -8 11.68 -8 11 C-8.66 11 -9.32 11 -10 11 C-11.60725635 7.78548731 -11.05748185 4.56387464 -11 1 C-10.34 1 -9.68 1 -9 1 C-9 2.98 -9 4.96 -9 7 C-8.34 7 -7.68 7 -7 7 C-7.33 6.01 -7.66 5.02 -8 4 C-7.34 3.01 -6.68 2.02 -6 1 C-5.34 2.98 -4.68 4.96 -4 7 C-2.68 4.69 -1.36 2.38 0 0 Z " fill="#8A74AE" transform="translate(177,103)"/>
<path d="M0 0 C1.65 0.99 3.3 1.98 5 3 C4.01 3.33 3.02 3.66 2 4 C2 4.66 2 5.32 2 6 C3.65 5.67 5.3 5.34 7 5 C7 5.66 7 6.32 7 7 C8.32 7 9.64 7 11 7 C11 7.66 11 8.32 11 9 C10.34 9 9.68 9 9 9 C8.67 9.99 8.34 10.98 8 12 C7.67 11.34 7.34 10.68 7 10 C6.34 10 5.68 10 5 10 C5 12.64 5 15.28 5 18 C4.01 18.33 3.02 18.66 2 19 C1.01 18.01 0.02 17.02 -1 16 C-1.33 16.66 -1.66 17.32 -2 18 C-2.66 18 -3.32 18 -4 18 C-3.98839844 17.15695313 -3.97679687 16.31390625 -3.96484375 15.4453125 C-3.95582031 14.34960938 -3.94679687 13.25390625 -3.9375 12.125 C-3.92589844 11.03445312 -3.91429687 9.94390625 -3.90234375 8.8203125 C-3.80255697 6.04822454 -3.80255697 6.04822454 -5 4 C-4.01 4 -3.02 4 -2 4 C-2 4.66 -2 5.32 -2 6 C-1.34 6 -0.68 6 0 6 C-0.185625 5.38125 -0.37125 4.7625 -0.5625 4.125 C-1 2 -1 2 0 0 Z " fill="#3E2374" transform="translate(191,29)"/>
<path d="M0 0 C1.67542976 0.28604898 3.34385343 0.61781233 5 1 C6.31626692 4.61973402 7 7.09567131 7 11 C8.32 11.33 9.64 11.66 11 12 C11 12.66 11 13.32 11 14 C10.34 14 9.68 14 9 14 C9 15.98 9 17.96 9 20 C8.34 20 7.68 20 7 20 C7 18.02 7 16.04 7 14 C6.34 15.65 5.68 17.3 5 19 C3.68 19 2.36 19 1 19 C0.875 15.625 0.875 15.625 1 12 C1.66 11.34 2.32 10.68 3 10 C1.35 8.68 -0.3 7.36 -2 6 C-1.125 1.125 -1.125 1.125 0 0 Z " fill="#381D74" transform="translate(192,103)"/>
<path d="M0 0 C1.65 0 3.3 0 5 0 C5 0.66 5 1.32 5 2 C4.01 2.495 4.01 2.495 3 3 C3.66 3.33 4.32 3.66 5 4 C5 4.66 5 5.32 5 6 C5.66 6 6.32 6 7 6 C7.33 4.68 7.66 3.36 8 2 C7.34 2 6.68 2 6 2 C6 1.34 6 0.68 6 0 C8.31 0 10.62 0 13 0 C13 0.66 13 1.32 13 2 C12.34 2 11.68 2 11 2 C11 5.96 11 9.92 11 14 C10.01 14 9.02 14 8 14 C8.66 15.98 9.32 17.96 10 20 C9.34 20 8.68 20 8 20 C8 19.34 8 18.68 8 18 C6.68 18 5.36 18 4 18 C4 18.66 4 19.32 4 20 C3.34 20 2.68 20 2 20 C3.875 14.25 3.875 14.25 5 12 C6.65 12.33 8.3 12.66 10 13 C10 12.01 10 11.02 10 10 C8.68 10.33 7.36 10.66 6 11 C6 10.01 6 9.02 6 8 C4.02 8 2.04 8 0 8 C0.33 7.34 0.66 6.68 1 6 C1.66 6.33 2.32 6.66 3 7 C2.505 6.5875 2.01 6.175 1.5 5.75 C0 4 0 4 0 0 Z " fill="#482C7D" transform="translate(196,59)"/>
<path d="M0 0 C1.8125 1.125 1.8125 1.125 3 3 C3.3125 6.0625 3.3125 6.0625 3 9 C1 11 1 11 -2.5 11.25 C-6 11 -6 11 -8 9 C-8.333728 5.86295684 -8.52849028 3.83445834 -6.8125 1.125 C-4.34492892 -0.40659584 -2.85480169 -0.42822025 0 0 Z " fill="#351B6E" transform="translate(42,124)"/>
<path d="M0 0 C1.875 1.0625 1.875 1.0625 3 3 C2.55555556 9.44444444 2.55555556 9.44444444 1 11 C-2.4375 11.1875 -2.4375 11.1875 -6 11 C-8 9 -8 9 -8.3125 6.0625 C-8 3 -8 3 -6.8125 1.125 C-4.34492892 -0.40659584 -2.85480169 -0.42822025 0 0 Z " fill="#453678" transform="translate(119,124)"/>
<path d="M0 0 C0.66 0 1.32 0 2 0 C1.67 1.32 1.34 2.64 1 4 C2.65 3.67 4.3 3.34 6 3 C5.67 6.96 5.34 10.92 5 15 C3.35 14.67 1.7 14.34 0 14 C0.99 13.67 1.98 13.34 3 13 C3 12.34 3 11.68 3 11 C2.01 10.67 1.02 10.34 0 10 C0.99 10 1.98 10 3 10 C3 9.34 3 8.68 3 8 C1.02 8 -0.96 8 -3 8 C-3 10.31 -3 12.62 -3 15 C-4.32 14.34 -5.64 13.68 -7 13 C-6.34 11.35 -5.68 9.7 -5 8 C-6.98 8.99 -6.98 8.99 -9 10 C-8.67 8.68 -8.34 7.36 -8 6 C-7.34 6 -6.68 6 -6 6 C-6 5.34 -6 4.68 -6 4 C-4.35 3.67 -2.7 3.34 -1 3 C-0.67 2.01 -0.34 1.02 0 0 Z " fill="#31166F" transform="translate(182,31)"/>
<path d="M0 0 C0.33 0 0.66 0 1 0 C1 2.64 1 5.28 1 8 C2.98 8 4.96 8 7 8 C7.33 7.34 7.66 6.68 8 6 C8.66 7.65 9.32 9.3 10 11 C9.401875 10.79375 8.80375 10.5875 8.1875 10.375 C5.71549154 9.69328085 5.71549154 9.69328085 3 12 C2.26656572 15.06556598 2.26656572 15.06556598 2 18 C1.67 18 1.34 18 1 18 C1 16.02 1 14.04 1 12 C0.01 12 -0.98 12 -2 12 C-2 13.98 -2 15.96 -2 18 C-2.66 18 -3.32 18 -4 18 C-4 16.02 -4 14.04 -4 12 C-4.99 12 -5.98 12 -7 12 C-6.67 10.02 -6.34 8.04 -6 6 C-5.01 6 -4.02 6 -3 6 C-3 6.66 -3 7.32 -3 8 C-2.34 8 -1.68 8 -1 8 C-1.20625 7.05125 -1.4125 6.1025 -1.625 5.125 C-1.74875 4.09375 -1.8725 3.0625 -2 2 C-1.34 1.34 -0.68 0.68 0 0 Z " fill="#371A74" transform="translate(207,15)"/>
<path d="M0 0 C2.31 0 4.62 0 7 0 C8.62950412 4.12168689 9.26264601 6.70700357 8 11 C5.36 11 2.72 11 0 11 C0 7.37 0 3.74 0 0 Z " fill="#3D2376" transform="translate(15,124)"/>
<path d="M0 0 C0.99 0 1.98 0 3 0 C3.66 1.32 4.32 2.64 5 4 C5.33 2.68 5.66 1.36 6 0 C7.65 0 9.3 0 11 0 C11.66 1.32 12.32 2.64 13 4 C13.66 2.68 14.32 1.36 15 0 C16 3 16 3 15.4375 5.625 C14 8 14 8 11.0625 8.875 C8 9 8 9 5 8 C4.34 7.01 3.68 6.02 3 5 C2.67 5.99 2.34 6.98 2 8 C1.34 8 0.68 8 0 8 C0 5.36 0 2.72 0 0 Z " fill="#8C76AF" transform="translate(170,59)"/>
<path d="M0 0 C3.63 0 7.26 0 11 0 C13 5 13 5 12 8 C10.68 7.34 9.36 6.68 8 6 C8 6.66 8 7.32 8 8 C7.34 8 6.68 8 6 8 C6 6.68 6 5.36 6 4 C5.34 5.32 4.68 6.64 4 8 C2.35 8 0.7 8 -1 8 C-1 7.34 -1 6.68 -1 6 C0.32 6.33 1.64 6.66 3 7 C3 6.34 3 5.68 3 5 C1.68 4.67 0.36 4.34 -1 4 C-0.67 2.68 -0.34 1.36 0 0 Z " fill="#482D80" transform="translate(188,83)"/>
<path d="M0 0 C0.99 0.66 1.98 1.32 3 2 C2.835 2.515625 2.67 3.03125 2.5 3.5625 C1.84951 6.73363876 1.9379266 9.77218334 2 13 C-0.375 13.625 -0.375 13.625 -3 14 C-6.00617269 10.99382731 -5.59585316 8.17618402 -6 4 C-5.01 3.67 -4.02 3.34 -3 3 C-1.33289654 1.50014391 -1.33289654 1.50014391 0 0 Z " fill="#45277D" transform="translate(178,9)"/>
<path d="M0 0 C4 0 8 0 12 0 C12 0.66 12 1.32 12 2 C11.01 2.495 11.01 2.495 10 3 C10.99 3.66 11.98 4.32 13 5 C12.34 6.32 11.68 7.64 11 9 C9.68 8.67 8.36 8.34 7 8 C7 7.01 7 6.02 7 5 C5.02 5 3.04 5 1 5 C1 5.66 1 6.32 1 7 C2.98 7.495 2.98 7.495 5 8 C3.35 8 1.7 8 0 8 C0 5.36 0 2.72 0 0 Z " fill="#9783BA" transform="translate(174,127)"/>
<path d="M0 0 C0.33 0 0.66 0 1 0 C1 2.31 1 4.62 1 7 C2.32 7 3.64 7 5 7 C5 7.66 5 8.32 5 9 C0.545 10.485 0.545 10.485 -4 12 C-4.33 10.68 -4.66 9.36 -5 8 C-6.65 8 -8.3 8 -10 8 C-9.01 5.69 -8.02 3.38 -7 1 C-4 2 -4 2 -2.8125 4.0625 C-2.544375 4.701875 -2.27625 5.34125 -2 6 C-1.34 4.02 -0.68 2.04 0 0 Z " fill="#6F559C" transform="translate(192,115)"/>
<path d="M0 0 C1.65 0.33 3.3 0.66 5 1 C5 1.66 5 2.32 5 3 C5.66 3.33 6.32 3.66 7 4 C7 6.31 7 8.62 7 11 C7.66 11 8.32 11 9 11 C9 11.66 9 12.32 9 13 C7.35 13 5.7 13 4 13 C3.67 11.35 3.34 9.7 3 8 C2.01 8 1.02 8 0 8 C0 7.01 0 6.02 0 5 C-0.99 5 -1.98 5 -3 5 C-3.33 6.65 -3.66 8.3 -4 10 C-5.09658936 6.71023192 -4.79953138 5.28696233 -4 2 C-2.68 2 -1.36 2 0 2 C0 1.34 0 0.68 0 0 Z " fill="#44257B" transform="translate(204,10)"/>
<path d="M0 0 C2.625 0.375 2.625 0.375 5 1 C5 1.33 5 1.66 5 2 C3.35 2 1.7 2 0 2 C0.66 2.33 1.32 2.66 2 3 C2 3.66 2 4.32 2 5 C3.65 5 5.3 5 7 5 C7.33 3.68 7.66 2.36 8 1 C8 1.66 8 2.32 8 3 C9.32 3 10.64 3 12 3 C12 2.01 12 1.02 12 0 C12.66 0 13.32 0 14 0 C14 2.64 14 5.28 14 8 C13.34 8 12.68 8 12 8 C12 7.01 12 6.02 12 5 C10.68 5 9.36 5 8 5 C7.67 5.99 7.34 6.98 7 8 C4.33333333 8 1.66666667 8 -1 8 C-1.625 5.125 -1.625 5.125 -2 2 C-1.34 1.34 -0.68 0.68 0 0 Z " fill="#8F77B6" transform="translate(215,127)"/>
<path d="M0 0 C0.33 0 0.66 0 1 0 C1.33 1.65 1.66 3.3 2 5 C2.66 5 3.32 5 4 5 C4.33 3.35 4.66 1.7 5 0 C5.33 0 5.66 0 6 0 C6.125 5.75 6.125 5.75 5 8 C5.66 8 6.32 8 7 8 C6.67 9.65 6.34 11.3 6 13 C6.99 13.33 7.98 13.66 9 14 C9.33 13.34 9.66 12.68 10 12 C10 14.31 10 16.62 10 19 C9.67 18.01 9.34 17.02 9 16 C7.68 16 6.36 16 5 16 C5 16.99 5 17.98 5 19 C4.34 19 3.68 19 3 19 C2.92652344 17.93458984 2.92652344 17.93458984 2.8515625 16.84765625 C2.73941406 15.46900391 2.73941406 15.46900391 2.625 14.0625 C2.55539063 13.14597656 2.48578125 12.22945312 2.4140625 11.28515625 C2.20910156 10.15400391 2.20910156 10.15400391 2 9 C1.34 8.67 0.68 8.34 0 8 C-0.33 8.66 -0.66 9.32 -1 10 C-0.67 6.7 -0.34 3.4 0 0 Z " fill="#A089BE" transform="translate(201,104)"/>
<path d="M0 0 C0.99 0.33 1.98 0.66 3 1 C3 2.65 3 4.3 3 6 C3.33 4.35 3.66 2.7 4 1 C5.32 0.67 6.64 0.34 8 0 C8.33 1.98 8.66 3.96 9 6 C9.66 6 10.32 6 11 6 C11.33 4.02 11.66 2.04 12 0 C12.33 0 12.66 0 13 0 C13 2.31 13 4.62 13 7 C11.34385343 7.38218767 9.67542976 7.71395102 8 8 C7.67 7.67 7.34 7.34 7 7 C6.67 7.66 6.34 8.32 6 9 C4.02 9 2.04 9 0 9 C0 6.03 0 3.06 0 0 Z " fill="#9E8ABB" transform="translate(203,83)"/>
<path d="M0 0 C0.70125 0.144375 1.4025 0.28875 2.125 0.4375 C5.07556141 1.01478375 8.03270151 1.51695141 11 2 C10.67 4.97 10.34 7.94 10 11 C8.02 11 6.04 11 4 11 C4.66 9.35 5.32 7.7 6 6 C5.01 5.67 4.02 5.34 3 5 C3 4.34 3 3.68 3 3 C1.02 3 -0.96 3 -3 3 C-2.01 2.67 -1.02 2.34 0 2 C0 1.34 0 0.68 0 0 Z " fill="#3D2271" transform="translate(226,36)"/>
<path d="M0 0 C0.66 0 1.32 0 2 0 C2.66 1.98 3.32 3.96 4 6 C4.144375 5.195625 4.28875 4.39125 4.4375 3.5625 C5 1 5 1 6 0 C7.66617115 -0.04063832 9.33388095 -0.042721 11 0 C11 0.66 11 1.32 11 2 C9.35 2 7.7 2 6 2 C6.26676204 3.98491642 6.26676204 3.98491642 7 6 C7.99 6.33 8.98 6.66 10 7 C9.67 6.01 9.34 5.02 9 4 C9.66 4 10.32 4 11 4 C11 5.32 11 6.64 11 8 C10.030625 8.268125 9.06125 8.53625 8.0625 8.8125 C7.051875 9.204375 6.04125 9.59625 5 10 C4.67 10.99 4.34 11.98 4 13 C2 11.5625 2 11.5625 0 9 C-0.35442445 5.97175582 -0.23347235 3.03514061 0 0 Z " fill="#AA95C6" transform="translate(210,59)"/>
<path d="M0 0 C2.25060133 1.12530066 3.48656345 1.9820846 5 4 C4.57894737 8.42105263 4.57894737 8.42105263 3 10 C0.5625 10.1875 0.5625 10.1875 -2 10 C-2.66 9.34 -3.32 8.68 -4 8 C-3.625 5.375 -3.625 5.375 -3 3 C-2.01 2.67 -1.02 2.34 0 2 C0 1.34 0 0.68 0 0 Z " fill="#D4C1E5" transform="translate(249,57)"/>
<path d="M0 0 C1.67542976 0.28604898 3.34385343 0.61781233 5 1 C5.66 3.31 6.32 5.62 7 8 C3.625 8.125 3.625 8.125 0 8 C-0.66 7.34 -1.32 6.68 -2 6 C-1.44444444 1.44444444 -1.44444444 1.44444444 0 0 Z " fill="#D5C3E5" transform="translate(192,103)"/>
<path d="M0 0 C0 0.66 0 1.32 0 2 C-2.31 2 -4.62 2 -7 2 C-7 3.65 -7 5.3 -7 7 C-4.525 7.99 -4.525 7.99 -2 9 C-2 8.01 -2 7.02 -2 6 C-2.66 6 -3.32 6 -4 6 C-4 5.34 -4 4.68 -4 4 C-2.68 4 -1.36 4 0 4 C0 5.98 0 7.96 0 10 C-1.27875 10.061875 -2.5575 10.12375 -3.875 10.1875 C-4.59429687 10.22230469 -5.31359375 10.25710937 -6.0546875 10.29296875 C-6.69664063 10.19628906 -7.33859375 10.09960938 -8 10 C-10.15502531 6.76746204 -10.46856135 5.74849077 -10 2 C-7.58628749 -2.25949266 -4.24852727 -0.88176981 0 0 Z " fill="#51427F" transform="translate(58,125)"/>
<path d="M0 0 C2.5625 0.1875 2.5625 0.1875 4.5625 2.1875 C4.1875 4.8125 4.1875 4.8125 3.5625 7.1875 C1.1875 7.8125 1.1875 7.8125 -1.4375 8.1875 C-3.4375 6.1875 -3.4375 6.1875 -3.625 3.625 C-3.37291261 0.34786389 -3.27713611 0.25208739 0 0 Z " fill="#B8A8CC" transform="translate(169.4375,26.8125)"/>
<path d="M0 0 C1.32 0 2.64 0 4 0 C4 0.66 4 1.32 4 2 C4.66 2.33 5.32 2.66 6 3 C5.01 3 4.02 3 3 3 C3.01160156 3.61488281 3.02320313 4.22976562 3.03515625 4.86328125 C3.04869141 6.07564453 3.04869141 6.07564453 3.0625 7.3125 C3.07410156 8.11300781 3.08570313 8.91351563 3.09765625 9.73828125 C3 12 3 12 2 15 C0.02 15 -1.96 15 -4 15 C-4 14.01 -4 13.02 -4 12 C-2.68 12.33 -1.36 12.66 0 13 C-0.66 9.37 -1.32 5.74 -2 2 C-1.34 2 -0.68 2 0 2 C0 1.34 0 0.68 0 0 Z " fill="#44287B" transform="translate(200,77)"/>
<path d="M0 0 C0.99 0.33 1.98 0.66 3 1 C3 1.66 3 2.32 3 3 C3.78375 2.79375 4.5675 2.5875 5.375 2.375 C6.674375 2.189375 6.674375 2.189375 8 2 C8.66 2.66 9.32 3.32 10 4 C9 5 9 5 6.4375 5.0625 C5.2309375 5.0315625 5.2309375 5.0315625 4 5 C4 7.97 4 10.94 4 14 C3.34 13.67 2.68 13.34 2 13 C1.25517713 10.32740027 0.59677922 7.70305881 0 5 C-0.20496094 4.27425781 -0.40992188 3.54851562 -0.62109375 2.80078125 C-0.74613281 2.20652344 -0.87117187 1.61226563 -1 1 C-0.67 0.67 -0.34 0.34 0 0 Z " fill="#33156F" transform="translate(162,78)"/>
<path d="M0 0 C2.5 0.125 2.5 0.125 3.5 1.125 C3.54080783 3.12458364 3.54254356 5.12545254 3.5 7.125 C1.5085944 7.50633299 -0.49279077 7.83825582 -2.5 8.125 C-3.5 7.125 -3.5 7.125 -3.625 4.125 C-3.46033403 0.1730167 -3.46033403 0.1730167 0 0 Z " fill="#D6D1E6" transform="translate(116.5,125.875)"/>
<path d="M0 0 C1.99954746 -0.04254356 4.00041636 -0.04080783 6 0 C7 1 7 1 7.0625 3.5625 C7.041875 4.366875 7.02125 5.17125 7 6 C5.35 6 3.7 6 2 6 C2 7.65 2 9.3 2 11 C1.34 11 0.68 11 0 11 C0 7.37 0 3.74 0 0 Z " fill="#584A8C" transform="translate(67,124)"/>
<path d="M0 0 C0.99 0 1.98 0 3 0 C3 2.31 3 4.62 3 7 C3.66 7 4.32 7 5 7 C6.0625 9.375 6.0625 9.375 7 12 C6.67 12.66 6.34 13.32 6 14 C5.67 12.68 5.34 11.36 5 10 C4.34 10.185625 3.68 10.37125 3 10.5625 C-0.89330114 11.13027308 -4.11375479 10.59281707 -8 10 C-5.64031256 7.90250005 -4.45383006 7.03094296 -1.25 6.8125 C-0.13625 6.9053125 -0.13625 6.9053125 1 7 C1.33 5.02 1.66 3.04 2 1 C1.34 0.67 0.68 0.34 0 0 Z " fill="#30136E" transform="translate(196,117)"/>
<path d="M0 0 C2.375 -0.125 2.375 -0.125 5 0 C5.66 0.66 6.32 1.32 7 2 C6.44444444 6.55555556 6.44444444 6.55555556 5 8 C3.33382885 8.04063832 1.66611905 8.042721 0 8 C0 5.36 0 2.72 0 0 Z " fill="#A792C1" transform="translate(219,83)"/>
<path d="M0 0 C3 1 3 1 4.75 3.875 C6 7 6 7 5 10 C2.69 9.34 0.38 8.68 -2 8 C-2 8.66 -2 9.32 -2 10 C-2.66 9.67 -3.32 9.34 -4 9 C-2.68 6.03 -1.36 3.06 0 0 Z " fill="#443276" transform="translate(128,125)"/>
<path d="M0 0 C0.33 0 0.66 0 1 0 C1 2.64 1 5.28 1 8 C1.99 8 2.98 8 4 8 C4.33 7.34 4.66 6.68 5 6 C5.99 6.99 6.98 7.98 8 9 C7.67 9.66 7.34 10.32 7 11 C5.68 10.67 4.36 10.34 3 10 C2.67 11.98 2.34 13.96 2 16 C1.34 15.67 0.68 15.34 0 15 C0 14.01 0 13.02 0 12 C-1.43750191 10.31201173 -1.43750191 10.31201173 -3 9 C-2.01 8.67 -1.02 8.34 0 8 C0 5.36 0 2.72 0 0 Z " fill="#31146C" transform="translate(189,15)"/>
<path d="M0 0 C0.66 0 1.32 0 2 0 C2 1.32 2 2.64 2 4 C3.98 2.68 5.96 1.36 8 0 C7.67 0.598125 7.34 1.19625 7 1.8125 C5.79212012 4.05386471 5.79212012 4.05386471 6 7 C6.94978897 9.15028304 6.94978897 9.15028304 8 11 C6.68 10.34 5.36 9.68 4 9 C4 8.34 4 7.68 4 7 C3.34 7 2.68 7 2 7 C2 8.32 2 9.64 2 11 C1.34 11 0.68 11 0 11 C0 7.37 0 3.74 0 0 Z " fill="#524481" transform="translate(100,124)"/>
<path d="M0 0 C4.95 0.99 4.95 0.99 10 2 C9.67 2.66 9.34 3.32 9 4 C8.01 4 7.02 4 6 4 C6.165 4.721875 6.33 5.44375 6.5 6.1875 C6.97587119 8.86427545 7.077443 11.28949487 7 14 C6.34 14 5.68 14 5 14 C5 11.03 5 8.06 5 5 C4.34 5 3.68 5 3 5 C2.67 6.32 2.34 7.64 2 9 C1.34 6.03 0.68 3.06 0 0 Z " fill="#30136C" transform="translate(176,78)"/>
<path d="M0 0 C0.33 0 0.66 0 1 0 C1 2.64 1 5.28 1 8 C2.98 8 4.96 8 7 8 C7.33 7.34 7.66 6.68 8 6 C8.66 7.65 9.32 9.3 10 11 C9.401875 10.79375 8.80375 10.5875 8.1875 10.375 C5.71549154 9.69328085 5.71549154 9.69328085 3 12 C2.26656572 15.06556598 2.26656572 15.06556598 2 18 C1.67 18 1.34 18 1 18 C0.86722656 17.18015625 0.73445312 16.3603125 0.59765625 15.515625 C0.42105469 14.43796875 0.24445313 13.3603125 0.0625 12.25 C-0.11152344 11.18265625 -0.28554687 10.1153125 -0.46484375 9.015625 C-0.91998926 6.09950603 -0.91998926 6.09950603 -1.69140625 3.734375 C-1.79324219 3.16203125 -1.89507812 2.5896875 -2 2 C-1.34 1.34 -0.68 0.68 0 0 Z " fill="#2D0F6C" transform="translate(207,15)"/>
<path d="M0 0 C1.32 0 2.64 0 4 0 C4 3.63 4 7.26 4 11 C2.68 11 1.36 11 0 11 C0 7.37 0 3.74 0 0 Z " fill="#47317B" transform="translate(27,124)"/>
<path d="M0 0 C3 1 3 1 4 3 C4.33 2.01 4.66 1.02 5 0 C5.66 0 6.32 0 7 0 C7 2.64 7 5.28 7 8 C6.01 8 5.02 8 4 8 C3.67 7.34 3.34 6.68 3 6 C2.67 6.66 2.34 7.32 2 8 C1.34 8 0.68 8 0 8 C0 5.36 0 2.72 0 0 Z " fill="#D7CDE5" transform="translate(214,39)"/>
<path d="M0 0 C2.64 0 5.28 0 8 0 C7.38545304 3.99455527 5.29353263 6.74466336 3 10 C4.65 10 6.3 10 8 10 C8 10.33 8 10.66 8 11 C5.36 11 2.72 11 0 11 C1.49836105 7.88801935 3.19933758 4.9465385 5 2 C3.35 2 1.7 2 0 2 C0 1.34 0 0.68 0 0 Z " fill="#4C3E80" transform="translate(89,124)"/>
<path d="M0 0 C1.98 0 3.96 0 6 0 C6 2.64 6 5.28 6 8 C4.02 8 2.04 8 0 8 C0 5.36 0 2.72 0 0 Z " fill="#CCBFDB" transform="translate(179,39)"/>
<path d="M0 0 C1.98 0.99 1.98 0.99 4 2 C4.33 1.34 4.66 0.68 5 0 C5.66 0 6.32 0 7 0 C7 2.64 7 5.28 7 8 C5.68 7.34 4.36 6.68 3 6 C2.67 6.66 2.34 7.32 2 8 C1.34 8 0.68 8 0 8 C0 5.36 0 2.72 0 0 Z " fill="#E6D8F0" transform="translate(210,27)"/>
<path d="M0 0 C3 1 3 1 4 3 C4.33 2.01 4.66 1.02 5 0 C5.66 0 6.32 0 7 0 C7 2.64 7 5.28 7 8 C5.68 7.34 4.36 6.68 3 6 C2.67 6.66 2.34 7.32 2 8 C1.34 8 0.68 8 0 8 C0 5.36 0 2.72 0 0 Z " fill="#D0BFE1" transform="translate(174,83)"/>
<path d="M0 0 C1.2065625 0.0309375 1.2065625 0.0309375 2.4375 0.0625 C2.4375 0.7225 2.4375 1.3825 2.4375 2.0625 C3.0975 2.0625 3.7575 2.0625 4.4375 2.0625 C4.4375 4.3725 4.4375 6.6825 4.4375 9.0625 C3.1175 9.0625 1.7975 9.0625 0.4375 9.0625 C0.4375 7.0825 0.4375 5.1025 0.4375 3.0625 C-0.8825 2.4025 -2.2025 1.7425 -3.5625 1.0625 C-2.5625 0.0625 -2.5625 0.0625 0 0 Z " fill="#44297D" transform="translate(210.5625,79.9375)"/>
<path d="M0 0 C3 1 3 1 4 3 C4.33 2.01 4.66 1.02 5 0 C5.66 0 6.32 0 7 0 C7 2.64 7 5.28 7 8 C6.01 7.67 5.02 7.34 4 7 C3.67 6.34 3.34 5.68 3 5 C2.67 5.99 2.34 6.98 2 8 C1.34 8 0.68 8 0 8 C0 5.36 0 2.72 0 0 Z " fill="#D3C4E4" transform="translate(256,59)"/>
<path d="M0 0 C1.65 0 3.3 0 5 0 C5.82638376 2.89234315 6 4.88742431 6 8 C5.34 8 4.68 8 4 8 C3.67 7.34 3.34 6.68 3 6 C2.67 6.66 2.34 7.32 2 8 C1.34 8 0.68 8 0 8 C0 5.36 0 2.72 0 0 Z " fill="#D6CCE4" transform="translate(187,39)"/>
<path d="M0 0 C0.33 0 0.66 0 1 0 C1.33 2.64 1.66 5.28 2 8 C3.65 8.33 5.3 8.66 7 9 C6.67 9.66 6.34 10.32 6 11 C3.4375 11.625 3.4375 11.625 1 12 C1 12.99 1 13.98 1 15 C0.01 14.67 -0.98 14.34 -2 14 C-1.34 12.35 -0.68 10.7 0 9 C-0.66 9 -1.32 9 -2 9 C-1.34 6.03 -0.68 3.06 0 0 Z " fill="#30126D" transform="translate(208,103)"/>
<path d="M0 0 C2.97 0.495 2.97 0.495 6 1 C6 3.31 6 5.62 6 8 C5.34 8 4.68 8 4 8 C3.67 7.34 3.34 6.68 3 6 C2.67 6.66 2.34 7.32 2 8 C1.34 8 0.68 8 0 8 C0 5.36 0 2.72 0 0 Z " fill="#B19FCB" transform="translate(205,127)"/>
<path d="M0 0 C1.65 0 3.3 0 5 0 C5.93065133 2.60582371 6.14917407 3.64198224 5.0625 6.25 C4.5365625 7.11625 4.5365625 7.11625 4 8 C2.68 7.67 1.36 7.34 0 7 C-0.93423645 3.98968256 -1.04449911 3.13349732 0 0 Z " fill="#7F6DA8" transform="translate(37,124)"/>
<path d="M0 0 C0.99 0 1.98 0 3 0 C3 0.99 3 1.98 3 3 C4.32 3.33 5.64 3.66 7 4 C6.67 4.33 6.34 4.66 6 5 C5.92851801 6.35243917 5.91600546 7.70834367 5.9375 9.0625 C5.958125 10.361875 5.97875 11.66125 6 13 C5.01 13.33 4.02 13.66 3 14 C3 12.02 3 10.04 3 8 C3.66 8 4.32 8 5 8 C5 7.34 5 6.68 5 6 C3.35 6 1.7 6 0 6 C0 4.02 0 2.04 0 0 Z " fill="#2D116B" transform="translate(198,109)"/>
<path d="M0 0 C0.66 0 1.32 0 2 0 C2 0.99 2 1.98 2 3 C2.99 3 3.98 3 5 3 C5 2.01 5 1.02 5 0 C5.66 0 6.32 0 7 0 C7 2.64 7 5.28 7 8 C6.34 8 5.68 8 5 8 C5 7.01 5 6.02 5 5 C4.01 5 3.02 5 2 5 C2 5.99 2 6.98 2 8 C1.34 8 0.68 8 0 8 C0 5.36 0 2.72 0 0 Z " fill="#B4A0CF" transform="translate(166,115)"/>
<path d="M0 0 C0.66 0 1.32 0 2 0 C5 5.75 5 5.75 5 8 C2.36 8 -0.28 8 -3 8 C-1.125 1.125 -1.125 1.125 0 0 Z " fill="#D1C5E0" transform="translate(241,39)"/>
<path d="M0 0 C1.98 0 3.96 0 6 0 C5.814375 0.763125 5.62875 1.52625 5.4375 2.3125 C4.77180827 5.08967375 4.77180827 5.08967375 6 8 C4.02 8 2.04 8 0 8 C0 5.36 0 2.72 0 0 Z " fill="#DACBEA" transform="translate(166,15)"/>
<path d="M0 0 C2 0 4 0 6 0 C5.79375 0.763125 5.5875 1.52625 5.375 2.3125 C4.66608797 5.21885944 4.66608797 5.21885944 7 8 C6.401875 7.814375 5.80375 7.62875 5.1875 7.4375 C2.83591238 6.77906313 2.83591238 6.77906313 0 8 C0 5.36 0 2.72 0 0 Z " fill="#D2C5E1" transform="translate(196,39)"/>
<path d="M0 0 C0.33 0 0.66 0 1 0 C1.33 2.31 1.66 4.62 2 7 C4.31 7.66 6.62 8.32 9 9 C9 9.99 9 10.98 9 12 C5.26512223 11.5020163 3.18762365 11.12508244 0 9 C0 8.34 0 7.68 0 7 C-1.32 6.67 -2.64 6.34 -4 6 C-3.01 6 -2.02 6 -1 6 C-1 5.34 -1 4.68 -1 4 C-1.99 3.67 -2.98 3.34 -4 3 C-2.68 3 -1.36 3 0 3 C0 2.01 0 1.02 0 0 Z " fill="#31176A" transform="translate(172,14)"/>
<path d="M0 0 C0.66 0.66 1.32 1.32 2 2 C-0.31 2 -2.62 2 -5 2 C-5 5.63 -5 9.26 -5 13 C-5.99 13 -6.98 13 -8 13 C-8 9.7 -8 6.4 -8 3 C-7.34 3 -6.68 3 -6 3 C-6 2.34 -6 1.68 -6 1 C-3.125 0.375 -3.125 0.375 0 0 Z " fill="#E8E6F2" transform="translate(72,122)"/>
<path d="M0 0 C1.98 0 3.96 0 6 0 C6 1.65 6 3.3 6 5 C4.68 5 3.36 5 2 5 C2 5.66 2 6.32 2 7 C3.32 7.33 4.64 7.66 6 8 C4.02 8 2.04 8 0 8 C0 5.36 0 2.72 0 0 Z " fill="#AA96C8" transform="translate(209,103)"/>
<path d="M0 0 C2 0 4 0 6 0 C5.814375 0.763125 5.62875 1.52625 5.4375 2.3125 C4.77180827 5.08967375 4.77180827 5.08967375 6 8 C4 8 2 8 0 8 C0 5.36 0 2.72 0 0 Z " fill="#D7CBE6" transform="translate(171,39)"/>
<path d="M0 0 C0.33 0 0.66 0 1 0 C1.33 2.64 1.66 5.28 2 8 C2.99 8 3.98 8 5 8 C5.33 5.36 5.66 2.72 6 0 C6.66 0 7.32 0 8 0 C8.02689216 1.47906892 8.04634621 2.95827483 8.0625 4.4375 C8.07410156 5.26121094 8.08570312 6.08492187 8.09765625 6.93359375 C8 9 8 9 7 10 C4 10.125 4 10.125 1 10 C0 9 0 9 -0.09765625 6.93359375 C-0.08605469 6.10988281 -0.07445313 5.28617188 -0.0625 4.4375 C-0.05347656 3.61121094 -0.04445313 2.78492187 -0.03515625 1.93359375 C-0.02355469 1.29550781 -0.01195313 0.65742187 0 0 Z " fill="#463973" transform="translate(78,125)"/>
<path d="M0 0 C2.475 0.495 2.475 0.495 5 1 C5.33 1.99 5.66 2.98 6 4 C5.34 4 4.68 4 4 4 C4.33 5.32 4.66 6.64 5 8 C3.33333333 8 1.66666667 8 0 8 C0 5.36 0 2.72 0 0 Z " fill="#B4A4CF" transform="translate(166,127)"/>
<path d="M0 0 C0.33 0.99 0.66 1.98 1 3 C1.99 3.33 2.98 3.66 4 4 C4 4.66 4 5.32 4 6 C3.01 6.33 2.02 6.66 1 7 C1.99 7.33 2.98 7.66 4 8 C2.35 8 0.7 8 -1 8 C-1 7.01 -1 6.02 -1 5 C-2.32 4.67 -3.64 4.34 -5 4 C-4.01 4 -3.02 4 -2 4 C-2 3.34 -2 2.68 -2 2 C-2.99 1.67 -3.98 1.34 -5 1 C-3.35 0.67 -1.7 0.34 0 0 Z " fill="#3A236F" transform="translate(195,60)"/>
<path d="M0 0 C0.99 0 1.98 0 3 0 C3.66 1.32 4.32 2.64 5 4 C5.66 2.68 6.32 1.36 7 0 C7 2.64 7 5.28 7 8 C6.34 8 5.68 8 5 8 C4.34 7.01 3.68 6.02 3 5 C2.67 5.99 2.34 6.98 2 8 C1.34 8 0.68 8 0 8 C0 5.36 0 2.72 0 0 Z " fill="#DDCEED" transform="translate(170,59)"/>
<path d="M0 0 C2.31 0.33 4.62 0.66 7 1 C7 3.64 7 6.28 7 9 C6.34 9 5.68 9 5 9 C4.67 7.35 4.34 5.7 4 4 C3.67 4.66 3.34 5.32 3 6 C2.01 5.67 1.02 5.34 0 5 C0 3.35 0 1.7 0 0 Z " fill="#7E64AB" transform="translate(161,58)"/>
<path d="M0 0 C3 1 3 1 4.1875 2.875 C5 5 5 5 5 8 C4.34 8 3.68 8 3 8 C3 7.34 3 6.68 3 6 C1.02 6.66 -0.96 7.32 -3 8 C-1.125 2.25 -1.125 2.25 0 0 Z " fill="#D9CDE6" transform="translate(186,27)"/>
<path d="M0 0 C0.99 0 1.98 0 3 0 C4.76462683 3.08809695 5 4.23312136 5 8 C4.34 8 3.68 8 3 8 C3 7.34 3 6.68 3 6 C2.01 6 1.02 6 0 6 C0 6.66 0 7.32 0 8 C-0.66 8 -1.32 8 -2 8 C-1.47731534 5.23723823 -0.89130413 2.6739124 0 0 Z " fill="#D8CEE4" transform="translate(201,15)"/>
<path d="M0 0 C0.99 0 1.98 0 3 0 C3 2.64 3 5.28 3 8 C4.32 8.33 5.64 8.66 7 9 C1.62694301 10.67357513 1.62694301 10.67357513 -1 11 C-3 9.625 -3 9.625 -4 8 C-3.01 7.67 -2.02 7.34 -1 7 C-0.67 4.69 -0.34 2.38 0 0 Z " fill="#4D3380" transform="translate(216,83)"/>
<path d="M0 0 C0.66 0.33 1.32 0.66 2 1 C1.67 1.99 1.34 2.98 1 4 C1.66 4 2.32 4 3 4 C2.67 6.31 2.34 8.62 2 11 C1.34 11 0.68 11 0 11 C-0.12375 10.195625 -0.2475 9.39125 -0.375 8.5625 C-0.684375 7.2940625 -0.684375 7.2940625 -1 6 C-1.66 5.67 -2.32 5.34 -3 5 C-3 6.65 -3 8.3 -3 10 C-3.33 10 -3.66 10 -4 10 C-4.125 4.25 -4.125 4.25 -3 2 C-2.01 2 -1.02 2 0 2 C0 1.34 0 0.68 0 0 Z " fill="#31136E" transform="translate(206,78)"/>
<path d="M0 0 C0.66 0 1.32 0 2 0 C2 1.98 2 3.96 2 6 C2.99 6 3.98 6 5 6 C5 4.02 5 2.04 5 0 C5.66 0 6.32 0 7 0 C7 2.31 7 4.62 7 7 C4.625 7.625 4.625 7.625 2 8 C0 6 0 6 -0.125 2.875 C-0.08375 1.92625 -0.0425 0.9775 0 0 Z " fill="#DFD3EA" transform="translate(204,39)"/>
<path d="M0 0 C1.98 0 3.96 0 6 0 C5.125 3.875 5.125 3.875 4 5 C4.66 5.33 5.32 5.66 6 6 C6 6.66 6 7.32 6 8 C4.02 8 2.04 8 0 8 C0.66 6.35 1.32 4.7 2 3 C1.34 2.67 0.68 2.34 0 2 C0 1.34 0 0.68 0 0 Z " fill="#DDCDEA" transform="translate(230,39)"/>
<path d="M0 0 C1.51400391 0.01740234 1.51400391 0.01740234 3.05859375 0.03515625 C4.07050781 0.04417969 5.08242187 0.05320313 6.125 0.0625 C7.29869141 0.07990234 7.29869141 0.07990234 8.49609375 0.09765625 C8.49609375 0.75765625 8.49609375 1.41765625 8.49609375 2.09765625 C7.83609375 2.09765625 7.17609375 2.09765625 6.49609375 2.09765625 C6.16609375 3.08765625 5.83609375 4.07765625 5.49609375 5.09765625 C5.16609375 4.43765625 4.83609375 3.77765625 4.49609375 3.09765625 C3.50609375 3.09765625 2.51609375 3.09765625 1.49609375 3.09765625 C1.16609375 4.41765625 0.83609375 5.73765625 0.49609375 7.09765625 C0.49609375 5.44765625 0.49609375 3.79765625 0.49609375 2.09765625 C-0.82390625 1.76765625 -2.14390625 1.43765625 -3.50390625 1.09765625 C-2.50390625 0.09765625 -2.50390625 0.09765625 0 0 Z " fill="#331571" transform="translate(193.50390625,35.90234375)"/>
<path d="M0 0 C0.66 0 1.32 0 2 0 C2 1.98 2 3.96 2 6 C2.66 6 3.32 6 4 6 C4 4.02 4 2.04 4 0 C4.66 0 5.32 0 6 0 C6 2.31 6 4.62 6 7 C4.34385343 7.38218767 2.67542976 7.71395102 1 8 C0 7 0 7 -0.0625 3.4375 C-0.041875 2.303125 -0.02125 1.16875 0 0 Z " fill="#DACDE6" transform="translate(201,27)"/>
<path d="M0 0 C1.98 0 3.96 0 6 0 C5.67 2.31 5.34 4.62 5 7 C5.66 7.33 6.32 7.66 7 8 C4.69 8 2.38 8 0 8 C1.32 7.67 2.64 7.34 4 7 C4 6.34 4 5.68 4 5 C2.68 5 1.36 5 0 5 C0 4.34 0 3.68 0 3 C0.99 3 1.98 3 3 3 C3 2.34 3 1.68 3 1 C2.01 0.67 1.02 0.34 0 0 Z " fill="#2E1468" transform="translate(177,117)"/>
<path d="M0 0 C1.32 0 2.64 0 4 0 C3.67 0.99 3.34 1.98 3 3 C3.66 3.33 4.32 3.66 5 4 C4.67 5.32 4.34 6.64 4 8 C2.35 8 0.7 8 -1 8 C-1 7.34 -1 6.68 -1 6 C-0.34 5.67 0.32 5.34 1 5 C0.34 4.67 -0.32 4.34 -1 4 C-0.67 2.68 -0.34 1.36 0 0 Z " fill="#D5C8E1" transform="translate(177,27)"/>
<path d="M0 0 C0.99 0.33 1.98 0.66 3 1 C3 2.32 3 3.64 3 5 C3.66 5 4.32 5 5 5 C5 5.99 5 6.98 5 8 C0.125 7.125 0.125 7.125 -1 6 C-1.125 3.5 -1.125 3.5 -1 1 C-0.67 0.67 -0.34 0.34 0 0 Z " fill="#D9D3E8" transform="translate(51,126)"/>
<path d="M0 0 C0.66 0 1.32 0 2 0 C2 2.64 2 5.28 2 8 C1.34 8 0.68 8 0 8 C0 7.01 0 6.02 0 5 C-1.32 5 -2.64 5 -4 5 C-4.33 5.99 -4.66 6.98 -5 8 C-5 5.69 -5 3.38 -5 1 C-4.67 1.66 -4.34 2.32 -4 3 C-2.68 3 -1.36 3 0 3 C0 2.01 0 1.02 0 0 Z " fill="#BBA8D3" transform="translate(227,127)"/>
<path d="M0 0 C1.65 0 3.3 0 5 0 C5 1.65 5 3.3 5 5 C4.01 5 3.02 5 2 5 C2 5.66 2 6.32 2 7 C2.99 7.33 3.98 7.66 5 8 C3.35 8 1.7 8 0 8 C0 5.36 0 2.72 0 0 Z " fill="#B8A6D4" transform="translate(175,115)"/>
<path d="M0 0 C1.65 0 3.3 0 5 0 C5 1.65 5 3.3 5 5 C4.01 5 3.02 5 2 5 C2 5.66 2 6.32 2 7 C2.99 7.33 3.98 7.66 5 8 C3.35 8 1.7 8 0 8 C0 5.36 0 2.72 0 0 Z " fill="#D2C1E5" transform="translate(166,83)"/>
<path d="M0 0 C0.66 0 1.32 0 2 0 C2.99 2.64 3.98 5.28 5 8 C4.34 8 3.68 8 3 8 C3 7.34 3 6.68 3 6 C1.68 6 0.36 6 -1 6 C-1 6.66 -1 7.32 -1 8 C-1.66 8 -2.32 8 -3 8 C-1.125 2.25 -1.125 2.25 0 0 Z " fill="#CDBFDE" transform="translate(201,71)"/>
<path d="M0 0 C0.66 0 1.32 0 2 0 C5 5.75 5 5.75 5 8 C4.34 8 3.68 8 3 8 C3 7.34 3 6.68 3 6 C1.02 6.66 -0.96 7.32 -3 8 C-2.01 5.36 -1.02 2.72 0 0 Z " fill="#CEBFE0" transform="translate(226,59)"/>
<path d="M0 0 C3.96 0 7.92 0 12 0 C12 0.33 12 0.66 12 1 C9.36 1.33 6.72 1.66 4 2 C4 2.99 4 3.98 4 5 C3.01 5 2.02 5 1 5 C1 5.66 1 6.32 1 7 C0.34 7 -0.32 7 -1 7 C-0.67 4.69 -0.34 2.38 0 0 Z " fill="#CCC7E1" transform="translate(56,57)"/>
<path d="M0 0 C0.66 0.66 1.32 1.32 2 2 C3.32 1.34 4.64 0.68 6 0 C5.814375 0.763125 5.62875 1.52625 5.4375 2.3125 C4.77180827 5.08967375 4.77180827 5.08967375 6 8 C4 8 2 8 0 8 C0 5.36 0 2.72 0 0 Z " fill="#DFD3EB" transform="translate(191,15)"/>
<path d="M0 0 C0.66 0 1.32 0 2 0 C2.66 2.31 3.32 4.62 4 7 C1.69 7 -0.62 7 -3 7 C-1.125 1.125 -1.125 1.125 0 0 Z " fill="#BAAAD2" transform="translate(199,128)"/>
<path d="M0 0 C0.66 0 1.32 0 2 0 C5 5.75 5 5.75 5 8 C4.34 8 3.68 8 3 8 C3 7.34 3 6.68 3 6 C1.68 6 0.36 6 -1 6 C-1 6.66 -1 7.32 -1 8 C-1.66 7.67 -2.32 7.34 -3 7 C-2.01 4.69 -1.02 2.38 0 0 Z " fill="#D2C4E2" transform="translate(176,71)"/>
<path d="M0 0 C-0.33 3.3 -0.66 6.6 -1 10 C-1.33 10 -1.66 10 -2 10 C-2 7.36 -2 4.72 -2 2 C-3.98 2.33 -5.96 2.66 -8 3 C-7.67 2.01 -7.34 1.02 -7 0 C-4.3333581 -1.33332095 -2.83319697 -0.67102033 0 0 Z " fill="#2F1170" transform="translate(171,36)"/>
<path d="M0 0 C1.32 0 2.64 0 4 0 C4 3.11257569 3.82638376 5.10765685 3 8 C1.68 8 0.36 8 -1 8 C-1 7.34 -1 6.68 -1 6 C-0.34 5.67 0.32 5.34 1 5 C0.34 4.67 -0.32 4.34 -1 4 C-0.67 2.68 -0.34 1.36 0 0 Z " fill="#E2D5EE" transform="translate(194,27)"/>
<path d="M0 0 C-0.33 1.32 -0.66 2.64 -1 4 C-4.3 4 -7.6 4 -11 4 C-10.01 3.34 -9.02 2.68 -8 2 C-7.67 1.34 -7.34 0.68 -7 0 C-3.86650268 -1.04449911 -3.01031744 -0.93423645 0 0 Z " fill="#CDC7E1" transform="translate(100,132)"/>
<path d="M0 0 C1.65 0 3.3 0 5 0 C4.01 0.33 3.02 0.66 2 1 C2 1.66 2 2.32 2 3 C2.99 3 3.98 3 5 3 C5 3.66 5 4.32 5 5 C4.01 5 3.02 5 2 5 C2 5.66 2 6.32 2 7 C2.99 7.33 3.98 7.66 5 8 C3.35 8 1.7 8 0 8 C0 5.36 0 2.72 0 0 Z " fill="#D9CBE8" transform="translate(188,59)"/>
<path d="M0 0 C1.32 0 2.64 0 4 0 C4 0.66 4 1.32 4 2 C3.67 2.33 3.34 2.66 3 3 C3.40929986 5.05396726 3.40929986 5.05396726 4 7 C2.35 7.33 0.7 7.66 -1 8 C-1 7.34 -1 6.68 -1 6 C-0.34 5.67 0.32 5.34 1 5 C0.34 4.67 -0.32 4.34 -1 4 C-0.67 2.68 -0.34 1.36 0 0 Z " fill="#E5DAED" transform="translate(184,15)"/>
<path d="M0 0 C0.66 0 1.32 0 2 0 C2 1.98 2 3.96 2 6 C2.99 6 3.98 6 5 6 C5 4.02 5 2.04 5 0 C5.33 0 5.66 0 6 0 C6 2.31 6 4.62 6 7 C4.34385343 7.38218767 2.67542976 7.71395102 1 8 C0 7 0 7 -0.0625 3.4375 C-0.041875 2.303125 -0.02125 1.16875 0 0 Z " fill="#E9DDF2" transform="translate(174,15)"/>
<path d="M0 0 C1.32 0.33 2.64 0.66 4 1 C4.80967438 3.91482778 5.21845993 5.46113217 4.0625 8.3125 C3.5365625 9.1478125 3.5365625 9.1478125 3 10 C3 7.36 3 4.72 3 2 C2.34 2 1.68 2 1 2 C1 2.99 1 3.98 1 5 C0.01 5 -0.98 5 -2 5 C-2 4.01 -2 3.02 -2 2 C-1.34 2 -0.68 2 0 2 C0 1.34 0 0.68 0 0 Z " fill="#2D0D6D" transform="translate(226,125)"/>
<path d="M0 0 C0.66 0 1.32 0 2 0 C3.0625 1.8125 3.0625 1.8125 4 4 C3.67 4.99 3.34 5.98 3 7 C1.68 6.34 0.36 5.68 -1 5 C-1 5.66 -1 6.32 -1 7 C-1.66 7 -2.32 7 -3 7 C-1.125 1.125 -1.125 1.125 0 0 Z " fill="#D4C7E3" transform="translate(197,84)"/>
<path d="M0 0 C1.65 0 3.3 0 5 0 C5 0.66 5 1.32 5 2 C4.01 2.495 4.01 2.495 3 3 C3.66 3.33 4.32 3.66 5 4 C4.67 5.32 4.34 6.64 4 8 C2.68 8 1.36 8 0 8 C0.33 7.34 0.66 6.68 1 6 C1.66 6.33 2.32 6.66 3 7 C2.505 6.5875 2.01 6.175 1.5 5.75 C0 4 0 4 0 0 Z " fill="#D0BFE3" transform="translate(196,59)"/>
<path d="M0 0 C1.32 0 2.64 0 4 0 C4 0.66 4 1.32 4 2 C3.01 2.495 3.01 2.495 2 3 C2.66 3.33 3.32 3.66 4 4 C4 5.32 4 6.64 4 8 C2.35 8 0.7 8 -1 8 C-1 7.34 -1 6.68 -1 6 C0.32 6.33 1.64 6.66 3 7 C3 6.34 3 5.68 3 5 C1.68 4.67 0.36 4.34 -1 4 C-0.67 2.68 -0.34 1.36 0 0 Z " fill="#D3C1E3" transform="translate(188,83)"/>
<path d="M0 0 C1.32 0.33 2.64 0.66 4 1 C4 1.99 4 2.98 4 4 C4.66 4 5.32 4 6 4 C6 5.98 6 7.96 6 10 C5.67 9.34 5.34 8.68 5 8 C4.34 8 3.68 8 3 8 C3 7.34 3 6.68 3 6 C2.01 5.67 1.02 5.34 0 5 C0.99 4.67 1.98 4.34 3 4 C2.01 2.68 1.02 1.36 0 0 Z " fill="#2E116C" transform="translate(198,57)"/>
<path d="M0 0 C0.99 0.495 0.99 0.495 2 1 C3.67654729 0.72057545 5.34608154 0.39171753 7 0 C7.33 1.65 7.66 3.3 8 5 C7.01 5.33 6.02 5.66 5 6 C5 4.68 5 3.36 5 2 C4.67 2.99 4.34 3.98 4 5 C2.68 4.67 1.36 4.34 0 4 C0 2.68 0 1.36 0 0 Z " fill="#58418D" transform="translate(216,61)"/>
<path d="M0 0 C2.20914 3.31371 2.22481553 4.3446021 2.125 8.1875 C2.10695312 9.08855469 2.08890625 9.98960938 2.0703125 10.91796875 C2.03550781 11.94857422 2.03550781 11.94857422 2 13 C1.67 13 1.34 13 1 13 C0.67 11.02 0.34 9.04 0 7 C-0.99 7.495 -0.99 7.495 -2 8 C-2.6875 6.25 -2.6875 6.25 -3 4 C-1.5625 1.75 -1.5625 1.75 0 0 Z " fill="#54368B" transform="translate(134,42)"/>
<path d="M0 0 C0.99 0.33 1.98 0.66 3 1 C3.33 2.98 3.66 4.96 4 7 C3.67 6.34 3.34 5.68 3 5 C1.68 5 0.36 5 -1 5 C-1 5.66 -1 6.32 -1 7 C-1.66 6.67 -2.32 6.34 -3 6 C-2.01 4.02 -1.02 2.04 0 0 Z " fill="#C5B3D8" transform="translate(185,116)"/>
<path d="M0 0 C0.99 0.33 1.98 0.66 3 1 C2.34 1 1.68 1 1 1 C1.66 2.32 2.32 3.64 3 5 C2.01 5.495 2.01 5.495 1 6 C0.01 7.485 0.01 7.485 -1 9 C-1 8.01 -1 7.02 -1 6 C-1.99 6 -2.98 6 -4 6 C-3.67 5.01 -3.34 4.02 -3 3 C-2.01 3 -1.02 3 0 3 C0 2.01 0 1.02 0 0 Z " fill="#4A2C83" transform="translate(184,111)"/>
<path d="M0 0 C1.65 0 3.3 0 5 0 C5 1.32 5 2.64 5 4 C3.68 4.33 2.36 4.66 1 5 C0.67 3.35 0.34 1.7 0 0 Z " fill="#402677" transform="translate(234,61)"/>
<path d="M0 0 C1.32 0.33 2.64 0.66 4 1 C4 1.99 4 2.98 4 4 C4.66 4 5.32 4 6 4 C6 5.98 6 7.96 6 10 C5.01 9.67 4.02 9.34 3 9 C3 6.69 3 4.38 3 2 C2.01 2 1.02 2 0 2 C0 1.34 0 0.68 0 0 Z " fill="#30126D" transform="translate(218,37)"/>
<path d="M0 0 C0.99 0.33 1.98 0.66 3 1 C3 1.99 3 2.98 3 4 C3.99 4.33 4.98 4.66 6 5 C5.01 5.33 4.02 5.66 3 6 C3 6.66 3 7.32 3 8 C1.68 7.67 0.36 7.34 -1 7 C-0.67 4.69 -0.34 2.38 0 0 Z " fill="#57408A" transform="translate(180,15)"/>
<path d="M0 0 C1.98 0 3.96 0 6 0 C6 0.66 6 1.32 6 2 C5.34 2 4.68 2 4 2 C4 3.98 4 5.96 4 8 C3.34 8 2.68 8 2 8 C2 6.02 2 4.04 2 2 C1.34 2 0.68 2 0 2 C0 1.34 0 0.68 0 0 Z " fill="#B09BCE" transform="translate(197,115)"/>
<path d="M0 0 C1.32 0.66 2.64 1.32 4 2 C3.67 3.32 3.34 4.64 3 6 C1.68 5.67 0.36 5.34 -1 5 C-0.67 3.35 -0.34 1.7 0 0 Z " fill="#392074" transform="translate(193,104)"/>
<path d="M0 0 C0.66 0.66 1.32 1.32 2 2 C1.67582137 5.80909895 1.14418558 7.78372163 -1 11 C-2.0257259 6.58937864 -2.03684712 4.07369424 0 0 Z " fill="#321770" transform="translate(173,70)"/>
<path d="M0 0 C1.98 0 3.96 0 6 0 C6 0.66 6 1.32 6 2 C5.34 2 4.68 2 4 2 C4 3.98 4 5.96 4 8 C3.34 8 2.68 8 2 8 C2 6.02 2 4.04 2 2 C1.34 2 0.68 2 0 2 C0 1.34 0 0.68 0 0 Z " fill="#E0D1ED" transform="translate(223,39)"/>
<path d="M0 0 C2.1385485 2.1385485 2.42655063 3.13275314 3 6 C1.02 6 -0.96 6 -3 6 C-3 6.66 -3 7.32 -3 8 C-3.66 7.67 -4.32 7.34 -5 7 C-4.34 6.01 -3.68 5.02 -3 4 C-2.34 4 -1.68 4 -1 4 C-0.67 2.68 -0.34 1.36 0 0 Z " fill="#8274A9" transform="translate(129,127)"/>
<path d="M0 0 C0.66 0.33 1.32 0.66 2 1 C1.67 1.99 1.34 2.98 1 4 C1.99 4.66 2.98 5.32 4 6 C4 6.66 4 7.32 4 8 C3.34 8 2.68 8 2 8 C2 7.34 2 6.68 2 6 C0.35 6.66 -1.3 7.32 -3 8 C-1.125 1.125 -1.125 1.125 0 0 Z " fill="#D0BEE3" transform="translate(177,103)"/>
<path d="M0 0 C0.33 0.66 0.66 1.32 1 2 C1.99 2 2.98 2 4 2 C4 2.99 4 3.98 4 5 C1.69 4.67 -0.62 4.34 -3 4 C-3 3.34 -3 2.68 -3 2 C-3.99 1.67 -4.98 1.34 -6 1 C-3 0 -3 0 0 0 Z " fill="#331371" transform="translate(202,67)"/>
<path d="M0 0 C0.33 1.32 0.66 2.64 1 4 C1.99 3.34 2.98 2.68 4 2 C4.99 2.33 5.98 2.66 7 3 C1.25 6 1.25 6 -1 6 C-1.33 6.66 -1.66 7.32 -2 8 C-2 7.01 -2 6.02 -2 5 C-2.99 4.67 -3.98 4.34 -5 4 C-3.35 4 -1.7 4 0 4 C0 2.68 0 1.36 0 0 Z " fill="#402673" transform="translate(222,63)"/>
<path d="M0 0 C1.65 0 3.3 0 5 0 C4.67 1.65 4.34 3.3 4 5 C2.68 4.67 1.36 4.34 0 4 C0 2.68 0 1.36 0 0 Z " fill="#432A77" transform="translate(247,61)"/>
<path d="M0 0 C0.99 0.33 1.98 0.66 3 1 C3 3.64 3 6.28 3 9 C2.01 9.33 1.02 9.66 0 10 C-0.19412181 8.52168779 -0.38012131 7.04230684 -0.5625 5.5625 C-0.66691406 4.73878906 -0.77132812 3.91507813 -0.87890625 3.06640625 C-0.91886719 2.38449219 -0.95882812 1.70257813 -1 1 C-0.67 0.67 -0.34 0.34 0 0 Z " fill="#5A428B" transform="translate(193,38)"/>
<path d="M0 0 C2.30925485 2.44579177 2.99001814 3.59442134 3.07421875 7.015625 C2.94660156 8.08296875 2.81898438 9.1503125 2.6875 10.25 C2.50767578 11.86648437 2.50767578 11.86648437 2.32421875 13.515625 C2.21722656 14.33546875 2.11023438 15.1553125 2 16 C1.67 16 1.34 16 1 16 C1 13.03 1 10.06 1 7 C0.34 6.67 -0.32 6.34 -1 6 C-0.67 5.67 -0.34 5.34 0 5 C0.04063832 3.33382885 0.042721 1.66611905 0 0 Z " fill="#513881" transform="translate(212,31)"/>
<path d="M0 0 C0.33 0 0.66 0 1 0 C1.12375 1.093125 1.2475 2.18625 1.375 3.3125 C1.75464801 7.07381802 1.75464801 7.07381802 4 10 C1.03 9.505 1.03 9.505 -2 9 C-2.33 7.02 -2.66 5.04 -3 3 C-2.34 3 -1.68 3 -1 3 C-0.67 2.01 -0.34 1.02 0 0 Z " fill="#533A85" transform="translate(200,27)"/>
<path d="M0 0 C1.65 0 3.3 0 5 0 C5 1.65 5 3.3 5 5 C3.35 4.67 1.7 4.34 0 4 C0 2.68 0 1.36 0 0 Z " fill="#8B81AF" transform="translate(69,125)"/>
<path d="M0 0 C0.66 0.99 1.32 1.98 2 3 C1.34 3.66 0.68 4.32 0 5 C-0.69748583 6.31747324 -1.36959957 7.64914193 -2 9 C-2 7.68 -2 6.36 -2 5 C-2.99 4.67 -3.98 4.34 -5 4 C-3.36587557 2.29159719 -2.13093906 1.06546953 0 0 Z " fill="#D4CFE5" transform="translate(112,122)"/>
<path d="M0 0 C0.33 0 0.66 0 1 0 C1 2.97 1 5.94 1 9 C1.66 9.33 2.32 9.66 3 10 C2.01 10.33 1.02 10.66 0 11 C-2.29013653 7.5647952 -2.17842973 6.014669 -2 2 C-1.34 2 -0.68 2 0 2 C0 1.34 0 0.68 0 0 Z " fill="#2A0F66" transform="translate(209,59)"/>
<path d="M0 0 C0.99 0 1.98 0 3 0 C3 2.64 3 5.28 3 8 C1.68 8.33 0.36 8.66 -1 9 C-0.67 6.03 -0.34 3.06 0 0 Z " fill="#533B84" transform="translate(207,27)"/>
<path d="M0 0 C0.66 0 1.32 0 2 0 C2 1.98 2 3.96 2 6 C2.99 6 3.98 6 5 6 C5 6.66 5 7.32 5 8 C3.35 8 1.7 8 0 8 C0 5.36 0 2.72 0 0 Z " fill="#D9CBE7" transform="translate(208,15)"/>
<path d="M0 0 C0 1.32 0 2.64 0 4 C-4.75 4.125 -4.75 4.125 -7 3 C-7 2.34 -7 1.68 -7 1 C-2.25 0 -2.25 0 0 0 Z " fill="#31166A" transform="translate(222,128)"/>
<path d="M0 0 C2.31 0 4.62 0 7 0 C7 0.66 7 1.32 7 2 C6.01 2 5.02 2 4 2 C4 3.98 4 5.96 4 8 C3.67 8 3.34 8 3 8 C3 6.02 3 4.04 3 2 C2.01 2 1.02 2 0 2 C0 1.34 0 0.68 0 0 Z " fill="#CCBCDE" transform="translate(202,59)"/>
<path d="M0 0 C2.31 0 4.62 0 7 0 C7.33 0.66 7.66 1.32 8 2 C7.01 3.485 7.01 3.485 6 5 C5.01 5 4.02 5 3 5 C3.33 4.01 3.66 3.02 4 2 C2.68 1.34 1.36 0.68 0 0 Z " fill="#6B5598" transform="translate(15,124)"/>
<path d="M0 0 C1.89213369 2.38573379 3.02391783 4.07175348 4 7 C2.68 7.33 1.36 7.66 0 8 C0 7.01 0 6.02 0 5 C-0.66 4.67 -1.32 4.34 -2 4 C-1.34 4 -0.68 4 0 4 C0 2.68 0 1.36 0 0 Z " fill="#43267C" transform="translate(209,120)"/>
<path d="M0 0 C0.66 0 1.32 0 2 0 C2 2.64 2 5.28 2 8 C1.01 8 0.02 8 -1 8 C-0.67 5.36 -0.34 2.72 0 0 Z " fill="#DFD4EB" transform="translate(219,39)"/>
<path d="M0 0 C1.65 0 3.3 0 5 0 C4.34 1.32 3.68 2.64 3 4 C2.67 4 2.34 4 2 4 C1.67 5.65 1.34 7.3 1 9 C0.67 9 0.34 9 0 9 C0 6.03 0 3.06 0 0 Z " fill="#6A529A" transform="translate(190,14)"/>
<path d="M0 0 C1.98 0.495 1.98 0.495 4 1 C3.34 1 2.68 1 2 1 C2 1.99 2 2.98 2 4 C2.66 4.33 3.32 4.66 4 5 C2.35 5 0.7 5 -1 5 C-0.67 3.35 -0.34 1.7 0 0 Z " fill="#E2DEF1" transform="translate(114,126)"/>
<path d="M0 0 C0.66 0.33 1.32 0.66 2 1 C0.35830472 3.02054804 -1.30911778 5.02043058 -3 7 C-3.33 7 -3.66 7 -4 7 C-4 5.35 -4 3.7 -4 2 C-2.125 0.9375 -2.125 0.9375 0 0 Z " fill="#CFCBDE" transform="translate(107,121)"/>
<path d="M0 0 C1.32 0.99 2.64 1.98 4 3 C3.34 3 2.68 3 2 3 C1.67 4.32 1.34 5.64 1 7 C-0.32 5.35 -1.64 3.7 -3 2 C-2.01 1.34 -1.02 0.68 0 0 Z " fill="#3E2372" transform="translate(213,24)"/>
<path d="M0 0 C1.98 0 3.96 0 6 0 C5.42655063 2.86724686 5.1385485 3.8614515 3 6 C3 5.34 3 4.68 3 4 C2.34 3.67 1.68 3.34 1 3 C1.33 2.67 1.66 2.34 2 2 C1.34 1.34 0.68 0.68 0 0 Z " fill="#472A7F" transform="translate(193,111)"/>
<path d="M0 0 C0.33 0 0.66 0 1 0 C1 1.98 1 3.96 1 6 C-0.32 5.67 -1.64 5.34 -3 5 C-1.125 1.125 -1.125 1.125 0 0 Z " fill="#2D116B" transform="translate(203,39)"/>
<path d="M0 0 C0.66 1.32 1.32 2.64 2 4 C0.02 4.99 0.02 4.99 -2 6 C-2 5.01 -2 4.02 -2 3 C-2.66 2.67 -3.32 2.34 -4 2 C-2.68 1.34 -1.36 0.68 0 0 Z " fill="#422678" transform="translate(173,33)"/>
</svg>
